<?xml version="1.0" encoding="UTF-8" standalone="no"?>
<!-- Created with Inkscape (http://www.inkscape.org/) -->

<svg
   xmlns:dc="http://purl.org/dc/elements/1.1/"
   xmlns:cc="http://creativecommons.org/ns#"
   xmlns:rdf="http://www.w3.org/1999/02/22-rdf-syntax-ns#"
   xmlns:svg="http://www.w3.org/2000/svg"
   xmlns="http://www.w3.org/2000/svg"
   xmlns:sodipodi="http://sodipodi.sourceforge.net/DTD/sodipodi-0.dtd"
   xmlns:inkscape="http://www.inkscape.org/namespaces/inkscape"
   id="svg2"
   version="1.1"
   inkscape:version="0.91 r13725"
   width="196"
   height="48"
   viewBox="0 0 196 48"
   sodipodi:docname="dribbble-logo.svg">
  <metadata
     id="metadata8">
    <rdf:RDF>
      <cc:Work
         rdf:about="">
        <dc:format>image/svg+xml</dc:format>
        <dc:type
           rdf:resource="http://purl.org/dc/dcmitype/StillImage" />
        <dc:title />
      </cc:Work>
    </rdf:RDF>
  </metadata>
  <defs
     id="defs6" />
  <sodipodi:namedview
     pagecolor="#ffffff"
     bordercolor="#666666"
     borderopacity="1"
     objecttolerance="10"
     gridtolerance="10"
     guidetolerance="10"
     inkscape:pageopacity="0"
     inkscape:pageshadow="2"
     inkscape:window-width="1920"
     inkscape:window-height="1017"
     id="namedview4"
     showgrid="false"
     inkscape:zoom="3.473887"
     inkscape:cx="61.512241"
     inkscape:cy="34.972707"
     inkscape:window-x="0"
     inkscape:window-y="30"
     inkscape:window-maximized="1"
     inkscape:current-layer="svg2" />
  <path
     style="fill:#7a0047;fill-opacity:1"
     d="m 79.574518,0.00145944 c -0.137632,-0.00300008 -0.27733,-0.001100029 -0.417967,0.00590014 -1.185798,0.05480132 -2.139855,0.46917632 -3.050766,1.32815702 -1.688842,1.5925485 -2.923267,4.639135 -3.66014,9.0334224 -0.789962,4.710903 -0.990709,10.936994 -0.574215,17.775819 0.04371,0.717677 0.06424,1.394833 0.04687,1.505896 -0.06361,0.40671 -0.545766,2.090935 -0.92773,3.240312 -1.749201,5.263637 -4.104268,8.996303 -5.759738,9.12913 -0.257896,0.0207 -0.358354,0.006 -0.544919,-0.08398 -1.168331,-0.565364 -1.864526,-3.142057 -2.087881,-7.713078 -0.0703,-1.438634 -0.0655,-4.820326 0.0098,-6.556798 0.09017,-2.08041 0.08421,-2.828167 -0.02539,-3.136795 -0.195499,-0.550533 -0.696733,-1.008061 -1.265619,-1.154324 -0.508703,-0.130784 -2.567559,-0.07993 -3.08397,0.07617 -0.318241,0.0962 -0.652833,0.416571 -0.812496,0.775409 -0.173807,0.39062 -0.268523,0.745021 -0.425779,1.601602 -0.298277,1.624759 -0.412989,3.020556 -0.529294,6.439608 -0.0264,0.776049 -0.08327,1.66739 -0.126953,1.980517 -0.07912,0.567034 -0.427526,2.041318 -0.628904,2.662173 -0.513739,1.583829 -2.349954,3.77207 -3.837872,4.57433 -0.914555,0.493112 -1.596259,0.456403 -2.123037,-0.11719 -0.792106,-0.862492 -1.117877,-2.879516 -0.980464,-6.078273 0.06618,-1.540377 0.130575,-2.38321 0.367186,-4.808709 0.255039,-2.614413 0.17414,-3.710445 -0.353514,-4.791132 -0.466323,-0.955073 -1.264418,-1.591957 -2.521472,-2.011767 -0.638852,-0.213345 -1.435605,-0.372937 -2.884752,-0.580092 -1.888402,-0.269927 -2.967075,-0.542047 -3.462875,-0.871115 -0.145799,-0.0968 -0.453722,-0.38655 -0.685544,-0.644547 -0.879718,-0.979083 -1.508591,-1.564459 -1.890615,-1.763714 -0.706921,-0.368729 -1.447883,-0.468332 -2.341786,-0.312508 -0.885632,0.154384 -1.316677,0.42537 -1.589836,1.000024 -0.333186,0.700977 -0.389267,1.437887 -0.304687,4.013769 0.07745,2.358107 0.04976,2.846348 -0.273435,4.730583 -1.018751,5.939044 -2.412706,9.846476 -4.121075,11.554967 -0.435186,0.435211 -0.795702,0.669971 -1.22851,0.796894 -1.211965,0.355429 -2.445233,-0.584806 -3.421858,-2.607484 -0.329501,-0.682447 -0.808812,-1.94017 -0.812496,-2.132865 -0.0013,-0.0703 0.155687,-0.524405 0.349607,-1.007836 2.546438,-6.347993 4.269698,-12.739756 4.832008,-17.930121 0.184539,-1.703431 0.224609,-2.472891 0.224609,-4.244242 -5.03e-4,-1.837396 -0.0619,-2.753266 -0.277342,-4.1934616 C 27.658481,4.7184243 25.562974,1.2313511 22.824818,0.25541757 22.344963,0.08439344 21.317474,0.04409847 20.488891,0.1655754 c -3.187765,0.46731128 -5.266806,2.8359295 -6.30661,7.1818143 -0.847879,3.5438063 -0.991552,8.5393863 -0.421873,14.5941023 0.05587,0.593934 0.114779,1.24088 0.130858,1.437535 l 0.0293,0.35743 -0.002,0 -0.583982,-0.167973 c -0.798301,-0.229375 -1.090777,-0.269037 -1.955069,-0.269537 -3.1588382,-0.002 -5.9450234,1.168589 -8.0761337,3.394613 -1.4960097,1.562607 -2.60559215,3.717413 -3.08787606,5.996238 -0.264448,1.249451 -0.29078217,4.221777 -0.0488279,5.552869 0.37849111,2.0822 1.36416286,4.226419 2.63084696,5.720846 0.4051554,0.478011 1.1653954,1.228939 1.5820237,1.564487 1.5098942,1.21604 3.4876271,2.05011 5.4706773,2.304746 0.7538677,0.0968 2.2481567,0.109733 2.9511567,0.0254 2.899281,-0.347829 5.367213,-1.766913 7.298794,-4.193462 0.109956,-0.138133 0.21753,-0.250006 0.238281,-0.250006 0.02075,0 0.279732,0.337598 0.576168,0.751968 1.468123,2.0522 2.583499,3.021983 3.978497,3.459074 1.673095,0.524223 3.707648,0.0949 5.494115,-1.160188 0.286557,-0.201295 0.779553,-0.638715 1.234369,-1.091826 1.182688,-1.178289 2.02953,-2.389678 3.017564,-4.320417 1.693979,-3.31028 2.926889,-7.248256 4.04295,-12.920234 0.09661,-0.49095 0.123028,-0.566419 0.208983,-0.566419 0.08326,0 1.866454,0.376882 2.999986,0.632828 0.676771,0.152824 1.000681,0.427676 1.105463,0.941429 0.03405,0.166524 0.05218,1.298858 0.04883,3.148513 -0.0049,2.706916 0.03193,3.985633 0.158202,5.373176 0.486171,5.342286 1.819241,8.299108 4.292949,9.519767 0.896167,0.442221 1.749187,0.625855 2.888658,0.625015 0.828748,-5e-4 1.385838,-0.105202 2.117177,-0.398449 1.48615,-0.595925 2.960466,-1.755293 4.759744,-3.744231 0.374859,-0.41438 0.695762,-0.759378 0.714839,-0.767598 0.01907,-0.008 0.143901,0.182724 0.27539,0.42384 0.995371,1.825334 2.317319,3.188057 3.771467,3.886814 0.891693,0.42849 1.672707,0.601574 2.718737,0.601574 2.565443,0 4.859334,-1.488956 6.847624,-4.445417 0.729854,-1.085256 1.590603,-2.755742 2.136708,-4.144636 0.157499,-0.40057 0.290409,-0.733102 0.296874,-0.740252 0.0065,-0.007 0.05054,0.185789 0.09766,0.427745 0.210351,1.080286 0.95573,2.885593 1.660148,4.021583 1.115022,1.798163 2.64187,3.243028 4.234355,4.007906 0.643549,0.309098 1.545869,0.600665 2.253895,0.728538 0.784323,0.141653 2.327291,0.151844 3.162095,0.0215 2.918491,-0.455731 5.21113,-1.977807 6.921843,-4.597771 0.446501,-0.683816 1.172453,-2.153514 1.488274,-3.013744 0.400587,-1.091137 0.800121,-2.619896 0.937495,-3.576259 l 0.0332,-0.222661 c 0.0068,-0.005 0.01448,-0.01042 0.02344,-0.01563 l 0.361326,-0.08008 c 1.243082,-0.273678 2.772079,-0.997351 3.703108,-1.75395 l 0.154296,-0.125003 0.164061,0.738299 c 0.232986,1.040965 0.657218,2.483847 1.039063,3.535242 1.95096,5.371849 4.77912,8.468004 8.32809,9.11936 0.55865,0.102532 1.93293,0.113502 2.64842,0.0215 3.15464,-0.40562 5.6016,-1.939497 7.34762,-4.603621 1.05131,-1.604124 1.87454,-3.722057 2.22655,-5.732565 l 0.0859,-0.488293 c 0.002,-0.003 0.004,-0.01177 0.006,-0.01367 5e-4,-5.1e-4 0.005,-0.0039 0.006,-0.0039 l 0.59766,-0.238286 c 1.28251,-0.509883 2.65888,-1.283306 3.26169,-1.83403 0.1521,-0.138943 0.28552,-0.251959 0.29883,-0.251959 0.0133,0 0.0403,0.09548 0.0586,0.212896 0.16913,1.082907 0.78102,3.303322 1.26756,4.601674 1.98446,5.295521 5.09899,8.278423 8.98825,8.611541 0.45542,0.039 1.28907,0.0309 1.80077,-0.0176 3.50239,-0.331988 6.35991,-2.307886 8.26949,-5.718888 0.9018,-1.610845 1.54437,-3.592963 1.71093,-5.275523 0.0285,-0.287947 0.0586,-0.529393 0.0664,-0.537123 0.008,-0.008 0.22676,-0.03941 0.48828,-0.07031 0.81999,-0.0969 1.79054,-0.328693 3.07031,-0.734393 0.0653,-0.0207 0.12617,0.116443 0.31836,0.718768 0.91526,2.868429 2.40787,5.709148 4.01755,7.640815 2.25264,2.703265 5.06572,4.096689 7.9941,3.961026 1.40467,-0.0651 2.62653,-0.40682 4.06834,-1.136738 0.89152,-0.451341 1.38866,-0.755028 2.46679,-1.511756 0.4401,-0.308898 0.83871,-0.573224 0.88476,-0.585954 0.0472,-0.013 0.20063,0.0665 0.35156,0.179694 1.1792,0.884241 3.22332,1.791173 5.09178,2.261774 1.59041,0.40058 2.68731,0.533683 4.39646,0.531263 1.41516,-0.002 1.99063,-0.0563 3.19334,-0.298837 4.68034,-0.943863 8.68434,-3.970746 11.75971,-8.888891 0.53673,-0.858352 0.67019,-1.207666 0.67187,-1.759809 0.002,-0.510182 -0.13443,-1.012129 -0.42773,-1.578163 -0.61048,-1.178288 -1.84011,-2.363188 -2.45311,-2.363338 -0.19631,-5e-5 -0.48911,0.172991 -0.62109,0.367196 -0.06,0.0883 -0.3426,0.623168 -0.62891,1.189481 -2.54698,5.037382 -5.89959,7.816638 -10.06245,8.340051 -0.65478,0.0823 -2.05499,0.0695 -2.76366,-0.0254 -0.72279,-0.0968 -1.84044,-0.361479 -2.46288,-0.582044 -0.53177,-0.18844 -1.13085,-0.450027 -1.13085,-0.494158 0,-0.0171 0.10743,-0.08725 0.23828,-0.156254 0.41659,-0.219695 1.52793,-0.97912 2.0996,-1.435581 0.70575,-0.563534 2.13502,-1.99243 2.70702,-2.707098 2.2689,-2.834678 3.3582,-6.00441 3.09959,-9.015842 -0.14321,-1.66805 -0.60145,-2.971903 -1.43358,-4.076271 -1.90701,-2.53088 -5.62572,-3.323266 -9.25582,-1.972703 -2.14626,0.798499 -3.93261,2.338198 -5.16013,4.451279 -1.1722,2.017779 -1.7956,4.376549 -1.87499,7.095875 -0.0696,2.386067 0.28465,4.439253 1.09569,6.353669 0.13458,0.317638 0.2432,0.612822 0.24219,0.654313 -0.004,0.136113 -1.03412,0.842895 -1.7539,1.203154 -0.94906,0.475016 -1.65308,0.654981 -2.55858,0.654311 -1.62457,-0.001 -3.06684,-0.88755 -4.38084,-2.693424 -1.00714,-1.384153 -1.94673,-3.450386 -2.58788,-5.68959 l -0.23047,-0.80666 0.50196,-0.541028 c 3.67887,-3.961726 6.2772,-9.692312 7.3652,-16.23672 0.69648,-4.189451 0.8075,-8.0225469 0.30469,-10.595959 -0.6108,-3.1261255 -1.96951,-4.9669339 -4.21874,-5.71498198 -0.78866,-0.26228633 -1.34106,-0.33852317 -2.41209,-0.33399306 -0.86449,0.0040001 -1.004,0.01644039 -1.45899,0.1367223 -2.21025,0.5842441 -3.99716,2.52962604 -5.26559,5.73451344 -2.10998,5.3311293 -2.58164,13.8052953 -1.23633,22.1763163 0.14247,0.886452 0.35239,2.037529 0.42188,2.312556 0.0386,0.152474 -7.8e-4,0.175252 -0.74218,0.429698 -0.5609,0.192485 -1.29232,0.350427 -1.84375,0.398448 l -0.37694,0.0332 -0.19532,-0.468762 c -0.90198,-2.164942 -3.01408,-4.378629 -5.24607,-5.496226 -1.15069,-0.576174 -2.0571,-0.743256 -2.65819,-0.4922 -0.5363,0.223995 -1.27462,1.285851 -1.52148,2.187553 -0.37927,1.385423 -0.1128,3.075607 0.75,4.752067 0.98678,1.917376 2.65153,3.547313 4.08787,4.004004 0.41208,0.131023 0.38956,0.05232 0.23242,0.818379 -0.4651,2.267404 -1.50987,4.24631 -2.79881,5.298956 -2.75252,2.247885 -6.23372,0.883972 -7.82028,-3.064527 -0.38577,-0.960084 -0.63617,-1.958154 -0.8164,-3.253985 -0.13697,-0.984724 -0.12516,-3.443287 0.0215,-4.652456 l 0.10742,-0.882834 0.61914,-1.25003 c 3.13346,-6.320402 5.32209,-13.998925 5.71872,-20.061031 0.083,-1.2690606 0.0349,-3.1710165 -0.0977,-3.8184522 -0.37557,-1.8352643 -1.41901,-3.3134299 -2.86912,-4.06259803 -1.60663,-0.83002004 -3.58093,-0.80087333 -5.0742,0.0722717 -0.60098,0.35141849 -1.51416,1.26183349 -2.00585,2.00200129 -1.72366,2.5947627 -2.81016,6.9094548 -3.24413,12.8870302 -0.14765,2.033759 -0.19064,3.877542 -0.16016,6.756022 0.0282,2.667264 0.0522,3.412436 0.18555,5.433725 l 0.0586,0.861349 -0.20703,0.279304 c -0.45638,0.617535 -1.13029,1.152036 -1.93749,1.537146 -0.41988,0.200325 -1.01804,0.417972 -1.14061,0.419932 -0.0113,-0.015 -0.0259,-0.04346 -0.041,-0.07226 -0.14314,-0.578354 -0.56927,-1.504722 -0.9707,-2.103567 -1.78831,-2.667834 -5.50022,-4.827457 -7.17965,-4.175881 -0.53048,0.205815 -1.05131,0.958515 -1.30469,1.888717 -0.14843,0.544883 -0.15967,1.705788 -0.0234,2.335994 0.40905,1.892255 1.62632,3.992962 3.15039,5.441537 0.65873,0.626105 1.21993,1.007092 1.83788,1.242218 l 0.10351,0.03906 c 10e-4,0.004 9.6e-4,0.0073 0.002,0.01172 l -0.14063,0.658219 c -0.572,2.675565 -1.68005,4.602108 -3.25389,5.654433 -1.32417,0.885368 -2.83999,0.9898 -4.25584,0.292974 -0.24872,-0.122413 -0.59965,-0.334569 -0.77929,-0.470712 -0.4546,-0.344548 -1.14215,-1.083604 -1.47265,-1.580116 -1.5431,-2.318206 -2.11802,-5.824973 -1.61133,-9.832269 l 0.0781,-0.628921 0.49219,-0.978539 c 2.98467,-5.938184 5.14368,-13.162987 5.76364,-19.2875756 0.12501,-1.2349098 0.12715,-4.0411166 0.004,-4.6993325 -0.25079,-1.3385723 -0.88734,-2.5538606 -1.77538,-3.3868007 -0.63376,-0.59444435 -1.38675,-1.00826534 -2.25585,-1.2383109 -0.44337,-0.11736283 -0.60365,-0.13411523 -1.35741,-0.13867534 -0.93065,-0.0060001 -1.27428,0.05253127 -1.9453,0.32422682 -2.96217,1.19919892 -4.95777,5.80953122 -5.714821,13.20735122 -0.239179,2.337255 -0.304771,3.653506 -0.33789,6.73063 -0.0295,2.740796 0.01306,4.546246 0.164062,7.041186 l 0.07812,1.291047 -0.199217,0.265631 c -0.450622,0.605504 -1.148844,1.16683 -1.892569,1.519568 -0.326031,0.154634 -1.191542,0.480481 -1.277338,0.48048 -0.02065,0 -0.06635,-0.221269 -0.101563,-0.490246 C 94.38216,29.443131 94.03168,28.529612 93.463501,27.676021 93.143118,27.1947 92.328132,26.351934 91.85218,26.009966 c -1.198436,-0.861081 -2.503519,-1.374287 -3.656233,-1.439489 -1.251176,-0.0708 -1.924376,0.330272 -2.460925,1.46488 -0.257529,0.544563 -0.3628,0.955881 -0.406248,1.585976 -0.173933,2.522281 1.757297,6.067107 4.167949,7.650575 l 0.54492,0.35743 -0.03125,0.25782 c -0.04805,0.41488 -0.374658,1.656056 -0.593747,2.25396 -0.391734,1.069066 -0.97471,2.096941 -1.593743,2.812568 -1.092839,1.263364 -2.538086,1.90301 -3.941388,1.744176 -1.973599,-0.223385 -3.637042,-1.746174 -4.621071,-4.230564 -0.851114,-2.148822 -1.100691,-5.016627 -0.707029,-8.129102 0.07755,-0.613135 0.08252,-0.625503 0.449217,-1.330111 2.794376,-5.369459 5.133892,-12.954733 5.800753,-18.807094 0.226327,-1.9862093 0.261058,-4.3880633 0.07813,-5.410288 C 84.784645,4.251557 84.519388,3.4379184 84.297152,2.9976978 83.350461,1.1223925 81.638997,0.04343245 79.574518,0.00153144 Z M 157.49993,5.0191586 c 0.3223,-0.0109 0.59426,0.126059 0.84961,0.416026 1.10975,1.2602604 1.39359,5.1787654 0.68945,9.5256214 -0.70139,4.329784 -2.24984,8.519789 -4.37107,11.828409 -0.23024,0.35913 -0.47454,0.719059 -0.54102,0.800801 l -0.11914,0.148441 -0.0547,-0.251959 c -0.0842,-0.3926 -0.24942,-1.577237 -0.33203,-2.380917 -0.29306,-2.851298 -0.40217,-6.359918 -0.27929,-8.990452 0.29206,-6.2525705 1.48881,-9.9695483 3.51561,-10.9182322 0.23826,-0.1115327 0.4492,-0.1712081 0.64258,-0.1777382 z M 21.56698,5.6832376 c 0.213398,-0.008 0.345411,0.063981 0.498045,0.2421928 1.015584,1.1860187 1.686905,5.5657156 1.537101,10.0256326 -0.159447,4.747015 -1.04646,9.073586 -2.638658,12.867498 -0.12865,0.306547 -0.252579,0.556654 -0.27539,0.556654 -0.115583,0 -0.275914,-0.352265 -0.570309,-1.248077 -1.686595,-5.132094 -2.261866,-10.112517 -1.761711,-15.252321 0.414082,-4.2551835 1.490387,-6.8519982 2.966783,-7.1583756 0.09267,-0.019201 0.173006,-0.030601 0.244139,-0.033201 z m 57.823945,0.1855505 c 0.546222,0 0.794798,1.2586513 0.640622,3.2442193 -0.274323,3.5327366 -1.466345,8.9133356 -2.769518,12.5003016 -0.140685,0.387249 -0.375106,0.953966 -0.519528,1.257843 l -0.261718,0.552748 -0.03516,-0.32618 c -0.132911,-1.25235 -0.174273,-4.866838 -0.08008,-6.906417 0.167126,-3.618577 0.57169,-6.4178977 1.179683,-8.1583997 0.491754,-1.407734 1.136212,-2.1641152 1.845699,-2.1641152 z m 26.161985,0.01953 c 0.34327,-0.026601 0.50109,0.1813684 0.64258,0.7832229 0.13087,0.5566935 0.1166,2.3240131 -0.0293,3.5489136 -0.49326,4.13963 -1.90585,9.778176 -3.15624,12.599913 -0.12241,0.276248 -0.23966,0.520862 -0.26172,0.542982 -0.0528,0.0529 -0.0926,-0.391558 -0.16211,-1.824263 -0.071,-1.461404 -0.029,-5.054418 0.0781,-6.629066 0.37869,-5.562605 1.32344,-8.6787362 2.72851,-8.9982639 0.057,-0.013 0.11111,-0.019641 0.16015,-0.023441 z M 131.68365,6.07387 c 0.0178,-3.5e-4 0.032,0.0058 0.0469,0.0078 0.0148,0.002 0.0292,0.0029 0.043,0.0059 0.0496,0.0183 0.0934,0.057311 0.16211,0.1308632 0.53304,0.5704738 0.53256,2.6786287 -0.002,6.0157705 -0.55181,3.447383 -1.62497,7.604707 -2.59569,10.058836 -0.18029,0.455812 -0.38278,0.935209 -0.44922,1.066432 -0.0664,0.131213 -0.12914,0.24024 -0.13867,0.24024 -0.0322,0 -0.0785,-0.621918 -0.13672,-1.808637 -0.072,-1.471095 -0.0298,-5.113911 0.0781,-6.679849 0.31717,-4.601101 0.98958,-7.4520697 2.00975,-8.5314558 0.29106,-0.3079574 0.53394,-0.4481488 0.85547,-0.4921999 0.0518,-0.007 0.0928,-0.01307 0.12695,-0.01367 z m -71.800446,5.093874 c -0.808995,-7.2e-4 -0.840847,0.0039 -1.306633,0.166019 -0.614149,0.213325 -1.075884,0.487819 -1.517571,0.904319 -0.601954,0.567643 -0.947455,1.129182 -1.169917,1.896531 -0.700774,2.417308 0.930016,4.895308 3.451156,5.244266 0.466916,0.0646 1.154963,0.0083 1.64257,-0.132815 1.155085,-0.334598 2.072161,-1.094644 2.589832,-2.14849 0.341477,-0.695167 0.403514,-0.979692 0.402341,-1.861373 -10e-4,-0.722307 -0.0084,-0.774643 -0.16992,-1.246124 -0.447086,-1.304641 -1.33616,-2.193758 -2.662098,-2.666079 -0.414982,-0.147834 -0.463189,-0.155554 -1.25976,-0.156254 z M 175.92954,26.636867 c 0.62396,-0.0183 1.30893,0.231991 1.78319,0.666031 0.52152,0.477282 0.69587,1.010887 0.69922,2.138724 0.004,1.24976 -0.40487,2.477416 -1.24414,3.728606 -0.89698,1.337212 -2.46738,2.845442 -4.39256,4.220805 -0.36442,0.260336 -0.67725,0.472667 -0.6953,0.472667 -0.0473,0 -0.32796,-0.625362 -0.47656,-1.060572 -0.37222,-1.090197 -0.49912,-1.93426 -0.4961,-3.308673 0.002,-0.878171 0.0225,-1.187632 0.10938,-1.658243 0.27913,-1.513587 0.88972,-2.768947 1.81053,-3.7247 0.79546,-0.82563 1.63688,-1.289673 2.63867,-1.451207 0.0858,-0.0138 0.17454,-0.02084 0.26367,-0.02344 z M 11.043593,28.168154 c 0.686151,0.002 1.411354,0.0734 1.898428,0.205083 0.590884,0.159764 1.361458,0.58579 1.828116,1.00979 0.175093,0.159083 0.205406,0.235512 0.53906,1.37894 0.75427,2.584962 1.254375,3.997514 2.107413,5.955222 l 0.378904,0.871115 c 0.01317,0.0407 0.0203,0.06734 0.02344,0.08594 l -0.117187,0.402353 c -0.555693,1.916847 -1.884647,3.548363 -3.587874,4.404408 -0.500406,0.251496 -1.151704,0.470081 -1.724601,0.580094 -0.950197,0.182454 -2.136891,0.133393 -3.0175641,-0.126963 C 7.7942852,42.467786 6.3434367,41.165566 5.5416679,39.496556 4.6341971,37.60753 4.4328565,35.334708 4.9889361,33.242499 5.7222187,30.483582 7.5504756,28.62669 9.9088347,28.244331 c 0.3253813,-0.0528 0.7230743,-0.07707 1.1347583,-0.07618 z"
     id="path7088"
     inkscape:connector-curvature="0"
     sodipodi:nodetypes="ccsssssccscccsssscsssssscccccscssscccsscsccsccccccscsssscssssccscsccsssccsccssssccssscsscccccccssssccccccscscsscccssscssccsssscccccccsscsccssccccscscccsssccsscccccsscsssssccccccscssccccscccsccsccccsscscccscscccsscccsccssccscccssssssscsccccsccccssccccsssssccssccccssscscscccccccccccscsccscccccccccscccccscscscccsccccssccccccssscc" />
</svg>
