<?xml version="1.0" encoding="UTF-8" standalone="no"?>
<!-- Created with Inkscape (http://www.inkscape.org/) -->

<svg
   xmlns:dc="http://purl.org/dc/elements/1.1/"
   xmlns:cc="http://creativecommons.org/ns#"
   xmlns:rdf="http://www.w3.org/1999/02/22-rdf-syntax-ns#"
   xmlns:svg="http://www.w3.org/2000/svg"
   xmlns="http://www.w3.org/2000/svg"
   xmlns:sodipodi="http://sodipodi.sourceforge.net/DTD/sodipodi-0.dtd"
   xmlns:inkscape="http://www.inkscape.org/namespaces/inkscape"
   id="svg2"
   version="1.1"
   inkscape:version="0.91 r13725"
   width="250"
   height="250"
   viewBox="0 0 250 250"
   sodipodi:docname="speckles-dark.svg">
  <metadata
     id="metadata8">
    <rdf:RDF>
      <cc:Work
         rdf:about="">
        <dc:format>image/svg+xml</dc:format>
        <dc:type
           rdf:resource="http://purl.org/dc/dcmitype/StillImage" />
        <dc:title />
      </cc:Work>
    </rdf:RDF>
  </metadata>
  <defs
     id="defs6" />
  <sodipodi:namedview
     pagecolor="#454545"
     bordercolor="#666666"
     borderopacity="1"
     objecttolerance="10"
     gridtolerance="10"
     guidetolerance="10"
     inkscape:pageopacity="0"
     inkscape:pageshadow="2"
     inkscape:window-width="1920"
     inkscape:window-height="1017"
     id="namedview4"
     showgrid="false"
     inkscape:zoom="1"
     inkscape:cx="-186.79093"
     inkscape:cy="149.997"
     inkscape:window-x="0"
     inkscape:window-y="30"
     inkscape:window-maximized="1"
     inkscape:current-layer="svg2"
     showborder="true" />
  <path
     style="opacity:0.1;fill:#ffffff;fill-opacity:1;stroke:none;stroke-width:2;stroke-linecap:butt;stroke-linejoin:miter;stroke-opacity:1"
     d="m 80.324219,0 c 0.529186,3.103812 2.631783,-0.85509604 0,0 z m 29.884761,0 c 0.42533,1.1465012 1.9501,-0.5271774 0,0 z m 43.64258,0 c -0.78436,3.1567495 3.04883,-1.0052387 0,0 z m 17.72461,0 c -2.66473,3.2745873 4.45774,0.55702289 0,0 z m 9.00977,0 c 0.40423,4.276736 3.08095,-0.35164306 0,0 z m 59.36133,0 c -1.19224,2.8810938 2.44651,-0.66576742 0,0 z m 0.92773,0 c 0.25675,1.9316763 2.30879,-0.42512678 0,0 z m 7.29297,0 c 1.53941,1.1326199 2.58576,-0.62111357 0,0 z M 97.787109,0.48632812 c -3.577822,1.32476598 2.701651,2.66288028 0,0 z m 39.761721,0 c -2.69617,2.66825638 3.58119,1.31834808 0,0 z M 70.552734,0.59960938 c -2.363884,1.41709832 3.177105,1.21907092 0,0 z M 196.24805,1.1230469 c -3.25741,1.2547084 2.34715,1.4504968 0,0 z M 13.140625,1.4628906 c -2.180882,2.1333078 3.736601,2.4110703 0,0 z m 209.054685,0 c -4.49657,3.0568842 2.70783,1.8424501 0,0 z m -87.56445,0.3144532 c -2.59786,1.7561674 2.51101,1.5466116 0,0 z m -71.521485,2.046875 c -2.36781,1.3927597 1.450877,1.785064 0,0 z m 182.679685,0.140625 c -2.8388,1.1707259 1.73016,1.5613911 0,0 z M 13.632812,4.3046875 c -1.745265,1.5419254 2.81517,1.2087401 0,0 z m 208.072268,0 c -2.84304,1.1656717 1.72948,1.564712 0,0 z M 71.212891,4.7929688 c -0.571031,4.3505681 1.955475,3.3816942 0,0 z m -1.935547,0.59375 c -2.84181,3.0655022 2.62708,1.2649659 0,0 z m 96.781246,0 c -2.55142,1.595358 2.63446,2.6409729 0,0 z M 15.419922,6.0410156 c -0.126066,2.6714069 6.569978,2.5232249 0,0 z m 2.558594,0 c -1.307973,1.9579843 2.320115,1.3433686 0,0 z m 199.380864,0 c -2.29544,1.2556609 1.26413,2.0464595 0,0 z m 2.55664,0 c -5.04282,2.1000147 -2.06007,2.699892 0.24804,0.6933594 l -0.24804,-0.6933594 z m 15.10351,0.4707032 c -1.3956,2.6332662 3.64184,1.6696799 0,0 z M 44.189453,6.6953125 c -2.038507,0.9779136 2.218203,1.4776824 0,0 z m 146.958987,0 c -2.58029,1.5592538 2.39966,1.0517141 0,0 z M 75.884766,7.6171875 c -1.485768,2.4644645 3.917796,2.6460275 0,0 z m 83.566404,0 c -4.66767,3.2703475 1.88447,2.5298625 0,0 z m -50.14062,0.4667969 c -2.02037,1.0491026 2.82981,0.1760907 0,0 z m 16.71679,0 c -3.95109,-0.01814 2.3441,0.9135957 0,0 z M 99.642578,8.65625 c -2.039368,0.9813323 2.222252,1.479689 0,0 z m 36.050782,0 c -2.58092,1.563387 2.40057,1.0525451 0,0 z M 95.453125,8.875 c -3.056667,1.493265 3.270015,1.705767 0,0 z m 44.431645,0 c -3.76942,1.881032 3.54765,1.580034 0,0 z M 244.9082,8.9824219 c -2.37295,1.3920391 1.45171,1.7858951 0,0 z M 134.76758,9.1992188 c -3.29778,1.0562072 1.13172,2.7095212 0,0 z M 91.132812,9.3105469 c -3.584594,1.3874461 4.46996,0.8900541 0,0 z m 53.072268,0 c -4.42665,0.9667681 3.41434,1.3488661 0,0 z m -16.10156,0.5820312 c -0.0712,3.6256929 3.75997,1.2490949 0,0 z m 23.09179,0.00586 c -0.10258,4.1200935 3.57581,1.5887235 0,0 z M 61.148438,10.271484 c -2.372919,1.391966 1.451658,1.785964 0,0 z m 18.636718,0 c -2.562262,1.632665 1.378106,1.771513 0,0 z m 163.083984,0.644532 c -2.00653,2.307965 -1.40516,5.293194 0.69141,0.248046 l -0.69141,-0.248046 z m -75.39453,0.255859 c -3.02762,1.271971 2.51091,2.247507 0,0 z m -19.65625,0.416016 c -0.62372,2.390937 2.48674,0.440849 0,0 z m 23.42773,0 c 0.0626,1.513459 1.96653,-0.81084 0,0 z m -79.757809,0.175781 c 1.429484,5.026053 -7.314456,2.749735 0.699219,4.080078 3.28007,-0.28657 -0.197013,-2.97512 -0.699219,-4.080078 z M 0.91796875,12.109375 c -2.56491415,1.63517 1.37810705,1.769528 0,0 z M 125.60352,12.240234 c -2.04273,1.05963 2.15171,1.408579 0,0 z m 24.91992,0.126954 c -2.22807,1.843352 2.73614,1.412024 0,0 z m 66.89453,0.09961 c -2.83711,1.168223 1.72978,1.563041 0,0 z M 94.722656,12.753906 c -2.633481,1.737242 2.539714,1.517766 0,0 z m 85.376954,0 c -2.56225,1.632646 1.37809,1.771523 0,0 z M 43.925781,13.15625 c -2.183869,1.96301 2.643217,1.292933 0,0 z m -31.726562,0.158203 c -4.1527125,1.824408 1.602378,2.165256 0,0 z m 210.939451,0 c -1.73105,1.446292 3.85246,2.233382 0.3711,0.07031 l -0.3711,-0.07031 z M 63.085938,13.519531 c -0.879452,1.987993 0.787648,1.951779 0,0 z m 91.361332,0.01953 c -2.96075,3.918611 2.20335,8.650599 0,0 z m -70.841801,0.503907 c -2.068324,1.038766 2.173766,1.382351 0,0 z m 20.802731,0.09766 c -0.92191,1.520908 1.82252,2.665907 0,0 z m 26.71289,0 c -3.72797,1.404139 0.1692,2.885921 0,0 z m -56.718746,0.306641 c -3.391051,1.546657 0.394132,2.768955 0,0 z M 188.60156,14.6875 c -3.25608,1.314922 2.31556,1.322136 0,0 z M 8.6660156,15.197266 c -2.5995892,1.754291 2.5121644,1.54319 0,0 z m 218.0058644,0 c -2.59961,1.754266 2.51216,1.543213 0,0 z m -44.97461,0.134765 c -2.88197,0.956927 2.94321,3.475207 0,0 z m 63.16406,0.302735 c -2.94938,3.803421 3.78644,1.614482 0,0 z M 43.318359,15.736328 c -2.507986,1.053882 1.442235,1.487468 0,0 z M 4.1523438,15.849609 c -2.597861,1.756163 2.5110052,1.54661 0,0 z m 77.3769532,0 c -2.597854,1.756165 2.511003,1.546607 0,0 z m 149.656253,0 c -2.59786,1.756163 2.511,1.54661 0,0 z m -63.41407,0.19336 c -1.89151,2.857674 2.50341,2.110026 0,0 z m -139.015621,0.04102 c 1.859078,3.899667 4.328103,0.110894 0,0 z m 177.824221,0 c -3.63846,0.121701 -2.26152,3.326876 0,0 z M 66.478516,16.554688 c -7.031209,0.505103 -0.295861,4.657918 0,0 z M 46.3125,16.748047 c -2.724526,2.418834 3.606734,3.683161 0,0 z m 142.71289,0 c -3.72112,3.541553 2.66838,2.54419 0,0 z m -10.12695,0.0918 c -1.43959,1.356014 2.57274,2.0607 0,0 z m -21.35547,0.701172 c 0.22575,4.764234 3.27295,2.744797 0,0 z m -43.06445,0.689453 c -1.75693,1.528061 2.85387,1.189326 0,0 z m -7.52735,0.4375 c -2.49756,9.325472 3.7858,6.709182 0,0 z m 98.75977,0.107422 c -1.43909,1.351077 2.57253,2.063604 0,0 z M 63.759766,19.121094 c -1.308613,1.951042 2.324101,1.346571 0,0 z m 107.818354,0 c -2.29967,1.252451 1.26546,2.044287 0,0 z m 24.24805,0.05078 c -1.14231,2.29448 4.44521,3.65478 0,0 z m 11.07617,0.126953 c -1.4334,1.310858 2.17973,1.452003 0,0 z m 42.86328,0.357422 c -2.99897,1.027673 1.3945,1.668201 0,0 z M 49.992188,19.773438 c -2.600502,1.759758 2.516795,1.543158 0,0 z m 135.351562,0 c -2.60049,1.759759 2.51679,1.543156 0,0 z M 5.0332031,19.994141 c -1.1095048,2.626534 3.1621725,1.219589 0,0 z m 225.2734369,0 c -3.25838,1.07188 1.12842,2.745724 0,0 z m -63.52539,0.210937 c -2.77914,1.609785 2.97278,2.210101 0,0 z m 73.34961,0.109375 c -1.74551,1.539384 2.81521,1.210685 0,0 z m -117.44922,0.07227 c -3.52911,2.397677 4.86428,1.479513 0,0 z m -77.906249,0.04102 c -2.597855,1.756163 2.511004,1.546609 0,0 z m 145.787109,0 c -2.59785,1.756158 2.511,1.546614 0,0 z M 66.699219,21.082031 c -2.038506,0.977915 2.218203,1.477682 0,0 z m 101.939451,0 c -2.58028,1.559285 2.39964,1.051706 0,0 z m 2.4961,0.21875 c -3.63418,2.348428 2.79851,1.850644 0,0 z M 2.2773438,21.736328 c -2.60110941,1.751603 2.5109532,1.547174 0,0 z m 230.7832062,0 c -2.59685,1.754417 2.51012,1.544603 0,0 z m -44.9668,0.142578 c -3.15552,3.930667 4.87972,4.956328 1.0048,1.360961 -2.45072,0.889623 -0.66105,-0.271079 -1.0048,-1.360961 z M 59.832031,22.050781 c -2.042807,1.061339 2.155853,1.402056 0,0 z m 37.173828,0.339844 c -2.60386,1.75147 2.512991,1.545773 0,0 z m 41.326171,0 c -2.59959,1.754291 2.51216,1.543194 0,0 z m -121.429686,0.03516 c -2.63348,1.737248 2.539719,1.517765 0,0 z m 203.156246,0.09766 c -2.36887,1.386006 1.44459,1.790946 0,0 z m -36.19726,0.193359 c -3.77876,1.813726 0.97344,3.630448 0,0 z M 54.609375,23.167969 c -2.368845,1.385935 1.444548,1.791022 0,0 z m -33.861328,0.546875 c -1.602082,1.619117 3.519423,1.226706 0,0 z m 24.6875,0.08789 c -2.724723,4.098463 5.082986,1.236857 0,0 z m 128.828123,0.0098 c -1.445,1.966433 2.28031,2.922784 0,0 z M 68.441406,23.921875 c -3.717615,1.422135 2.463255,1.765744 0,0 z m 98.453124,0 c -2.83529,1.173989 1.72907,1.563801 0,0 z M 33.8125,25.005859 c -2.581224,1.56302 2.404718,1.047045 0,0 z m 40.263672,0 c -1.307822,1.9591 2.322188,1.341079 0,0 z m 87.185548,0 c -2.29451,1.248524 1.25926,2.05189 0,0 z m 40.26172,0 c -2.0385,0.97791 2.2182,1.47769 0,0 z M 86.708984,25.310547 c -4.71888,1.586544 -1.446944,4.045808 0,0 z m -8.955078,0.259765 c -5.325695,4.199356 6.423862,3.829327 0,0 z M 186.16211,25.71875 c -2.71863,2.282911 2.20381,0.835774 0,0 z m -72.82813,0.128906 c -2.54037,2.200841 2.89541,2.238377 0,0 z m -97.085933,1.091797 c -2.63608,1.740812 2.545475,1.514334 0,0 z m 53.623047,0 c -2.63608,1.740804 2.545475,1.514342 0,0 z m 33.658206,0.02734 c -3.29342,1.336484 1.27853,1.701919 0,0 z m 28.27929,0 c -1.5318,1.79606 3.47792,1.114628 0,0 z m 71.0586,0.21875 c -4.2306,3.091463 2.95917,2.805085 0,0 z m -63.5625,0.107422 c -4.68472,2.096391 1.00132,1.77256 0,0 z m -28.78907,0.699219 c -2.7618,1.717595 3.03281,0.667883 0,0 z m 87.55665,0.169921 c -2.83926,1.17252 1.73544,1.558208 0,0 z m -55.90039,0.06641 c -2.56864,1.633098 1.37865,1.77498 0,0 z m -108.945318,0.04687 c -2.600495,1.759768 2.516801,1.543148 0,0 z m 187.447268,0.05078 c -2.63607,1.740773 2.54545,1.514371 0,0 z m -108.85547,0.05664 c -1.21199,2.84148 3.53427,1.577602 0,0 z m 11.69922,0 c -3.68573,2.419289 1.28558,2.314638 0,0 z m -96.343752,0.771485 c -1.745576,1.542932 2.81559,1.212539 0,0 z m 180.990232,0 c -2.84258,1.170757 1.73085,1.565434 0,0 z M 60.611328,29.583984 c -3.143342,0.714191 2.471045,1.483241 0,0 z m 114.115232,0 c -2.54101,1.508541 3.1526,0.670407 0,0 z m -90.484372,0.302735 c -0.824065,5.20918 4.346414,2.073994 0,0 z m 6.373046,0.351562 c -2.602239,1.757896 2.517964,1.539734 0,0 z m 54.105466,0 c -2.59958,1.754284 2.51216,1.5432 0,0 z m -46.910153,0.339844 c -2.483996,2.662152 1.45528,2.744149 0,0 z m 39.716793,0 c -1.54132,1.982498 2.547,3.441809 0,0 z m -23.84179,0.230469 c -2.63187,1.743591 2.5447,1.511791 0,0 z m -78.330081,0.08203 c -2.554035,1.066257 3.904763,4.175937 0.753751,0.315488 l -0.753751,-0.315488 z m 164.625001,0 c -4.76157,3.844236 2.22601,2.370729 0,0 z m -94.44141,0.01563 c -1.42888,1.313948 2.18234,1.448977 0,0 z m -33.210935,0.298828 c -4.242986,1.845727 5.437627,2.263043 0,0 z M 2.4765625,31.453125 c -2.24973033,2.128328 3.7784115,2.105823 0,0 z m 86.6093755,0.03711 c -2.269133,1.992973 1.833061,2.175516 0,0 z m -27.439454,0.06445 c -3.216203,7.355715 4.925396,7.494789 0,0 z m 30.496094,0.210937 c -1.109503,2.626532 3.162171,1.219595 0,0 z m 51.054692,0 c -3.25835,1.071867 1.12838,2.745736 0,0 z m -85.953129,0.0059 c -2.156295,1.930866 3.041984,1.783739 0,0 z m 120.849609,0 c -3.49114,2.107816 2.45305,1.989838 0,0 z m -97.154297,0.556641 c -0.828501,2.565063 2.866838,1.430947 0,0 z m 128.654297,1.15625 c -2.36899,1.394316 1.45095,1.789048 0,0 z M 46.291016,33.822266 c -2.602244,1.757892 2.517961,1.53974 0,0 z m -4.734375,0.419922 c -4.012435,-0.02517 2.362661,0.912273 0,0 z m 152.224609,0 c -2.01989,1.049224 2.82994,0.173847 0,0 z M 89.845703,34.775391 c -1.433407,1.31085 2.179731,1.452008 0,0 z m 12.314457,0.193359 c -3.846618,2.478013 4.08098,2.078608 0,0 z m -81.289066,0.560547 c -3.737101,0.685313 2.688979,1.563275 0,0 z m 193.593746,0 c -2.61609,1.12631 4.25713,3.357756 0,0 z M 117,35.548828 c -4.03672,-0.02553 2.37037,0.915545 0,0 z m 1.33789,0 c -2.01949,1.051649 2.82951,0.177238 0,0 z m -27.539062,0.417969 c -2.63088,2.378789 2.554229,2.471844 0,0 z m 48.794922,0.03711 c -1.84556,2.130865 2.25327,2.032652 0,0 z M 7.0917969,36.611328 c -2.0635777,1.045346 2.175994,1.377239 0,0 z m 197.3085931,0.09766 c -3.80757,1.912573 1.76741,1.370617 0,0 z m -34.94922,0.382813 c -2.04347,1.055996 2.15198,1.406741 0,0 z M 63.833984,37.431641 c -6.487585,3.657369 3.059049,4.749281 0,0 z m 107.667966,0 c -2.5355,1.510808 3.15101,0.664495 0,0 z M 36.328125,38.611328 c -1.841944,2.603713 2.375575,2.329748 0,0 z m 61.130859,0.351563 c -2.790848,2.894328 2.272664,3.751882 0,0 z m 40.419926,0 c -2.83533,1.175725 1.72914,1.561646 0,0 z m -34.52149,0.08984 c -3.360962,1.655607 3.24305,1.334803 0,0 z M 60.0625,39.191406 c -2.636079,1.740799 2.54547,1.514346 0,0 z m 182.55664,0.09766 c -2.56876,1.632918 1.37904,1.771438 0,0 z M 47.375,39.392578 c -2.416303,1.560839 3.433634,1.477384 0,0 z m 140.58594,0 c -3.35037,1.584028 2.27048,1.492741 0,0 z m -55.70313,0.166016 c -3.34868,5.259037 3.80814,3.789353 0,0 z m -94.123044,0.05859 c -1.745367,1.54409 2.821052,1.211081 0,0 z m 159.066404,0 c -2.83762,1.171796 1.73007,1.564246 0,0 z m -90.60351,0.316406 c -2.56875,1.632912 1.37903,1.771432 0,0 z m 99.16015,0.115234 c -4.38373,0.818476 -0.0285,6.331384 0,0 z M 85.705078,40.154297 c -1.757892,1.52837 2.853504,1.189466 0,0 z m 29.193362,0.154297 c -2.97854,1.205399 2.95221,1.505762 0,0 z m 5.54101,0 c -3.10635,1.469368 3.13399,1.224238 0,0 z m 23.66016,0.152344 c -4.86591,1.725735 4.88376,2.377416 0,0 z m 30.73047,0.01953 c -3.95184,2.612618 3.81593,2.273919 0,0 z m 49.8164,0.09766 c -4.80425,2.675484 4.14955,2.747777 0,0 z M 79.234375,41.023438 c -2.014436,5.20297 5.055058,4.034071 0,0 z m 76.869145,0 c -5.05508,4.034063 2.01444,5.202976 0,0 z m 16.54296,0.199218 c -2.56876,1.632919 1.37907,1.77143 0,0 z m 59.19922,0.175782 c -4.6827,2.628287 3.3199,1.37604 0,0 z M 24.199219,42.007812 c -2.581847,1.567193 2.405605,1.047854 0,0 z m 186.937501,0 c -2.03885,0.978473 2.21843,1.482251 0,0 z m -62.59375,0.04102 c -0.34974,2.426801 3.34165,1.347854 0,0 z m -55.476564,0.367188 c -3.699251,2.764007 2.776258,1.959696 0,0 z m 116.490234,0.0957 c -2.86995,3.025939 2.65146,1.242129 0,0 z m -164.230468,0.43164 c -1.668154,2.146748 4.661016,-0.428635 0,0 z m 36.730469,0 c 0.136957,2.29446 2.567775,-0.689523 0,0 z m 21.283199,0 c -0.37768,2.47587 2.39386,-0.987463 0,0 z m 56.97071,0 c 0.73732,2.482931 2.03615,-0.922483 0,0 z m 21.10742,0 c 0.13611,2.293856 2.5677,-0.68713 0,0 z m 36.08984,0 c 1.12961,2.196588 3.78921,-0.744919 0,0 z M 44.617188,43.626953 c -0.645968,3.986755 5.855834,0.682259 0,0 z m 146.101562,0 c -5.85627,0.686419 0.65417,3.983335 0,0 z m -130.330078,0.07813 c -3.400935,1.634153 3.282831,1.308429 0,0 z m 12.099609,0 c -4.400396,2.590565 4.211244,2.389317 0,0 z m 57.330079,0.08203 c -3.22584,2.959554 3.71109,2.288384 0,0 z m 69.92773,0.01563 c -2.63187,1.743629 2.54473,1.51176 0,0 z m -183.917965,0.04687 c -3.268349,0.862056 0.629617,1.932734 0,0 z m 82.259766,0 c -2.759648,1.544109 3.853299,1.782573 0,0 z m 68.486329,0 c -3.34621,1.395017 2.30064,1.550495 0,0 z m 82.26172,0 c -0.85881,1.705846 3.38929,1.137755 0,0 z M 57.925781,44.271484 c -4.044249,-0.02536 2.373054,0.908901 0,0 z M 41.201172,44.84375 c -1.11031,2.630123 3.163057,1.221097 0,0 z m 152.937498,0 c -3.26471,1.070434 1.12831,2.751595 0,0 z m -68.61328,0.09375 c -1.71687,2.743733 4.99191,3.125345 0,0 z m 10.37891,0 c -1.62886,7.048354 7.48658,1.627435 0,0 z m -77.302738,0.154297 c -2.299668,1.675453 2.119316,2.461283 0,0 z m 170.572268,0 c -2.63187,1.743586 2.5447,1.511794 0,0 z M 56.666016,45.277344 c -1.421243,3.100432 2.225916,1.193147 0,0 z m 122.003904,0 c -2.09186,1.179745 1.36122,2.669122 0,0 z M 77.496094,45.736328 c -2.328294,2.474276 5.037454,0.49195 0,0 z m 24.082026,0.01563 c -1.925364,2.742097 2.77443,0.792098 0,0 z m 84.56641,0.06055 c -3.36515,1.650843 3.23998,1.336529 0,0 z m -51.54492,0.175781 c -2.02144,1.193525 1.68558,2.302971 0,0 z m -11.49219,0.164063 c -2.60111,1.751607 2.51095,1.547168 0,0 z m -97.318358,0.08398 c -2.444695,3.163348 3.227783,0.373776 0,0 z m 214.628908,0.0098 c -4.6958,2.206395 4.71593,2.786277 0,0 z M 23.943359,46.619141 c -3.567582,2.466932 4.287072,1.825453 0,0 z m 30.542969,0.621093 c -4.490594,1.686765 3.523576,1.110608 0,0 z m 126.365232,0 c -3.48099,1.324996 4.1983,1.348461 0,0 z m -96.718748,0.21875 c -4.211317,1.984856 3.976321,6.233638 0.228516,2.326172 0.877159,-0.450654 1.013057,-2.264408 -0.228516,-2.326172 z m -67.626953,0.115235 c -2.318749,2.818703 4.645506,3.604932 0,0 z m 92.238281,0.644531 c -1.24719,1.796771 2.3088,1.258694 0,0 z m 125.41016,0.25 c -3.10062,1.467164 3.12114,1.226292 0,0 z m 13.96484,0.183594 c -1.75142,1.539925 2.81754,1.215386 0,0 z m -41.09766,0.236328 c -1.32398,3.965724 1.74495,2.940355 0,0 z m -79.89257,0.193359 c 0.30985,2.889247 2.93809,0.731305 0.40208,0.192272 l -0.40208,-0.192272 z m 10.40625,0 c -2.32003,0.396731 -1.60505,3.874376 0,0 z m -88.832035,0.119141 c -2.59786,1.756163 2.511005,1.54661 0,0 z m 137.931645,0 c -2.59788,1.756148 2.51101,1.546624 0,0 z M 36.236328,49.492188 c -0.942326,2.077594 3.96182,0.477331 0,0 z m 162.865232,0 c -3.86386,0.505261 0.65656,1.952671 0,0 z m -18.3789,0.24414 c -2.65308,1.414569 2.57212,1.234552 0,0 z m 1.69531,0.417969 c -3.33116,1.853555 3.31027,1.796621 0,0 z m -120.005861,0.01563 c -2.59786,1.756161 2.511002,1.546611 0,0 z M 138.90234,50.25 c -0.16417,3.226621 3.50515,2.5407 0,0 z m -31.71093,0.140625 c -2.30622,1.205835 1.42686,1.936485 0,0 z m 50.27929,0 c -1.33224,1.475112 2.09517,1.339712 0,0 z m -77.230466,0.119141 c -2.597865,1.756164 2.51101,1.546606 0,0 z m 69.982426,0 c -2.34234,1.490183 3.16373,1.193318 0,0 z m 4.875,0 c -2.59788,1.756153 2.51101,1.546617 0,0 z m -60.242191,0.04687 c -3.128196,3.491646 4.955945,2.257815 0,0 z m 74.951171,0 c -4.17589,2.045312 3.0353,3.07825 0,0 z m -61.73633,0.667968 c -2.66563,1.870321 3.38694,0.372738 0,0 z m 19.19531,0 c -3.7372,0.685313 2.68903,1.563278 0,0 z m 8.59961,0.207032 c -1.00903,1.389247 3.37336,0.970652 0,0 z m -109.769527,0.65625 c -2.372927,1.391988 1.45167,1.785941 0,0 z m 37.998047,0 c -1.984504,5.704538 8.846841,-1.791652 0,0 z m 133.80859,0.263671 c -5.36078,1.672823 8.47063,1.857789 0,0 z M 52.835938,52.470703 c -3.360192,1.653785 3.238648,1.336761 0,0 z m 129.666012,0 c -3.36018,1.653792 3.23865,1.336754 0,0 z m -165.2832,0.568359 c -3.804116,0.0706 -2.241739,4.502809 0,0 z m 230.22461,0 c 1.19431,4.057027 4.66778,0.632034 0,0 z m -17.11133,0.160157 c -5.71012,2.303022 0.73513,2.624456 0,0 z M 41.859375,53.345703 c -2.59685,1.754423 2.51013,1.544596 0,0 z m -10.365234,0.121094 c -0.631257,3.621576 5.104372,2.071216 0,0 z m 127.816409,0.0078 c -2.30266,1.667237 2.1155,2.470085 0,0 z m -50.67578,0.294922 c 0.97086,2.988156 4.49571,0.106625 0,0 z M 42.732422,54.3125 c -2.652805,1.416747 2.570634,1.237674 0,0 z m 179.199218,0 c -2.04271,1.059644 2.1517,1.408568 0,0 z m -115.12305,0.179688 c -7.50016,3.017712 -2.85079,4.447073 0.37827,0.175758 l -0.37827,-0.175758 z m -48.968746,0.216796 c -0.629656,3.061818 4.604991,0.617828 0,0 z m 22.232422,0.263672 c -2.838804,1.170728 1.730163,1.561391 0,0 z m 14.841796,0.222656 c -6.927226,1.512438 2.906159,1.046123 0,0 z m 45.509768,0 c -1.88915,1.19082 5.47898,1.161916 0,0 z m 32.97851,0.111329 c -5.37182,1.736477 2.57876,2.785233 0,0 z m -73.630856,0.0039 c 0.439896,3.145095 4.224876,2.072902 0,0 z m -15.199218,0.246094 c 0.01939,2.580356 4.212521,2.771246 0,0 z m 45.363284,0.134765 c -3.50443,1.759061 0.40835,2.275181 0,0 z m -10.05274,0.269532 c -2.59786,1.756167 2.51101,1.54661 0,0 z m -66.244138,0.398437 c -12.164947,1.765011 7.984931,2.052612 0,0 z m 94.255858,0.255859 c -3.52767,1.527051 4.51441,1.518195 0,0 z m -73.697264,0.347657 c -5.810153,2.710602 5.185129,2.446938 0,0 z m 41.646484,0.03125 c -1.25038,2.818011 6.01636,1.39645 0.32031,0 l -0.32031,0 z m -79.201172,0.273437 c -1.457738,0.409284 1.099407,4.217329 0.545567,0.226513 l -0.545567,-0.226513 z m 162.052732,0 c -2.3987,3.340009 1.84135,1.733114 0,0 z m -34.32031,0.65625 c -2.59959,1.754287 2.51216,1.543204 0,0 z m -49.12305,0.3125 c -3.26099,1.251696 2.34374,1.4544 0,0 z m 8.06055,0 c -2.30992,1.205237 1.42775,1.94095 0,0 z m 18.03711,0 c -1.32981,1.476093 2.09419,1.343459 0,0 z m 8.06055,0 c -2.34491,1.490886 3.16466,1.19335 0,0 z m -84.460941,0.21875 c -3.165434,1.209001 2.372074,1.044115 0,0 z m 134.763671,0 c -2.32447,1.297179 2.85616,0.917429 0,0 z m -96.27344,0.06445 c 3.33936,3.054897 7.8567,1.029249 0,0 z m -57.371091,0.113281 c -2.633288,2.383008 2.559697,2.467837 0,0 z m -3.279297,0.0078 c -4.696885,1.899903 3.067484,1.130417 0,0 z m 18.810547,0.160156 c -1.744953,1.543974 2.814237,1.212959 0,0 z m -40.68164,0.210938 c -2.601116,1.751599 2.510954,1.547176 0,0 z m 4.513672,0 c -2.598998,2.396331 2.523263,2.517144 0,0 z m 184.474609,0 c -2.59435,2.399185 2.52176,2.51453 0,0 z m 4.51367,0 c -2.59685,1.75442 2.51013,1.544599 0,0 z M 67.628906,59.666016 c -1.308125,1.955657 2.321017,1.340591 0,0 z m 100.080074,0 c -3.48293,0.709336 0.98946,2.982803 0,0 z m -53.02343,0.21875 c -2.42139,1.559241 3.43516,1.479048 0,0 z m 31.42968,0.09375 c -1.65766,1.309949 2.73754,2.84191 0.55978,0.304973 l -0.55978,-0.304973 z m -26.79296,0.04102 c -7.11748,4.828342 3.40696,2.670556 0,0 z M 17.693359,60.318359 c -3.744968,1.556605 -6.63003,1.834605 -0.226562,2.535157 0.610902,-0.462941 1.489266,-2.253719 0.226562,-2.535157 z m 199.951171,0 c -2.60635,5.924194 10.2074,0.494234 0,0 z M 27.648438,60.435547 c -0.455384,1.155857 -2.399243,2.958958 1.035966,1.17047 l -0.72542,-1.029845 -0.310546,-0.140625 z m 180.039062,0 c -1.60818,4.561887 2.76818,1.727655 0,0 z m -136.103516,0.03516 c -4.440066,1.551315 2.471346,1.366714 0,0 z m 104.396486,0.06836 c -2.0385,0.977914 2.2182,1.477683 0,0 z m -123.861329,0.0039 c -2.841201,1.171444 1.728779,1.56547 0,0 z m 131.099609,0 c -1.74495,1.543977 2.81423,1.212956 0,0 z M 29.835938,60.853516 c -2.647587,1.41724 2.570518,1.231419 0,0 z m 204.992182,0 c -2.04873,1.052473 2.15362,1.409166 0,0 z m -224.001948,0.25 c -1.8537127,2.580063 2.873863,1.723678 0,0 z m 160.152348,0.183593 c -3.68511,1.319091 0.80489,1.952399 0,0 z M 79.373047,61.8125 c -1.40375,2.438798 3.521435,2.929496 0,0 z m 35.914063,0.128906 c -2.04236,1.059025 2.15152,1.404029 0,0 z m -56.355469,0.21875 c -4.708374,2.405201 2.490019,3.295021 0,0 z m 146.798829,0 c -5.82901,2.344565 5.78075,3.692726 0,0 z m 7.96289,0.0059 c -1.74558,1.542939 2.81559,1.212535 0,0 z m 22.72656,0.115234 c -3.66279,3.771615 3.57635,7.041778 0,0 z m 3.73828,0.08008 c -3.99592,-0.02395 2.35876,0.914492 0,0 z m -61.07617,0.04297 c -2.63039,2.377242 2.55384,2.469644 0,0 z M 63.015625,62.541016 c -0.15742,3.197039 5.104438,2.40796 0.587891,0.449218 l -0.587891,-0.449218 z m 25.308594,0.109375 c -4.560729,2.520566 -0.596235,3.344227 0,0 z m 74.394531,0.101562 c -2.01798,1.195749 1.68561,2.305135 0,0 z m -139.332031,0.0625 c -2.64686,1.41859 2.567109,1.23228 0,0 z m 217.888671,0 c -2.04144,1.057515 2.15157,1.408369 0,0 z m -210.804687,0.07227 c -1.861528,1.078455 2.567754,1.842599 0,0 z m -8.992187,0.162109 c -2.631871,1.743616 2.544716,1.511773 0,0 z m 76.867187,0.09766 c -1.428874,1.313954 2.182337,1.448973 0,0 z m -64.210937,0.0059 c -3.314258,1.39178 3.207497,1.080767 0,0 z m 167.066404,0 c -3.31358,1.390193 3.203,1.082485 0,0 z m -183.650389,0.49414 c -3.658099,1.09453 3.617456,1.887266 0,0 z m 229.562499,0 c -3.61957,1.88585 3.65547,1.096529 0,0 z m -196.039061,0.02148 c -0.298667,2.220044 4.063349,1.711294 0,0 z m 133.189451,0 c -4.74082,2.068873 0.46064,2.452273 0,0 z m 41.02539,0.123047 c -2.3712,1.398285 1.45145,1.786467 0,0 z m -93.93359,0.332031 c -1.90563,2.543041 6.23695,0.139468 0,0 z m -43.197267,0.148437 c -4.019139,1.703599 1.482958,1.633194 0,0 z m 59.021487,0 c -0.85024,1.976051 3.07599,1.032338 0,0 z M 0,64.427734 c -0.25269965,1.528237 0.27296005,0.362475 0,0 z m 47.664062,0.03516 c -2.043839,0.974573 2.219828,1.479859 0,0 z m 86.404298,0.654297 c -2.55105,1.590295 2.63126,2.6461 0,0 z M 27.628906,65.550781 c -2.227022,2.043067 4.332346,1.60147 0,0 z m 180.080074,0 c -4.34015,1.462507 1.90906,2.133838 0,0 z m -84.33203,0.07813 c -0.45931,2.804266 3.21927,1.114223 0,0 z m -68.003903,0.695313 c -2.956494,1.243177 1.912101,2.653447 0,0 z m 124.591793,0 c -1.97067,3.173016 2.97493,1.072056 0,0 z m -31.51562,0.04687 c -2.56226,1.63265 1.3781,1.771521 0,0 z m 50.09961,0.05273 c -2.84181,3.065538 2.62708,1.264935 0,0 z m -53.15821,0.654297 c -2.29451,1.248551 1.25929,2.051871 0,0 z m -55.70312,0.5 c -2.968167,1.951661 5.160027,1.550042 0,0 z m -28.107422,0.244141 c -1.776409,3.461209 5.075357,2.396959 0,0 z m 112.177732,0 c -6.0785,2.876362 2.29348,3.617103 0,0 z M 12.082031,68.046875 c -3.2612855,1.252015 2.3446,1.450848 0,0 z m 184.695309,0.164063 c -2.7791,5.096705 4.70752,5.401684 0,0 z M 8.6660156,68.820312 c -1.9081843,1.462725 3.2958464,4.312075 0,0 z m 218.0058644,0 c -2.59788,1.756144 2.511,1.546632 0,0 z M 44.357422,69.134766 c -2.597863,1.756162 2.511004,1.546614 0,0 z m 123.746098,0.03711 c -1.76404,1.522796 2.85548,1.194281 0,0 z M 42.447266,69.722656 c -2.921064,2.541708 1.665288,2.936604 0,0 z m 150.443354,0 c -1.77063,2.325763 2.91764,3.211635 0,0 z m -128.570308,0.01953 c -0.511845,2.805592 4.181439,2.906392 0,0 z m -2.583984,0.40039 c -2.564492,1.628973 1.372426,1.774924 0,0 z m -41.822266,0.117188 c -1.858937,2.579142 2.875656,1.72401 0,0 z m 224.835938,0 c -2.8929,1.716747 1.83469,2.575339 0,0 z M 26.537109,70.425781 c -7.253224,0.153355 2.714151,5.953136 0,0 z m -12.644531,0.236328 c -3.267787,0.859956 0.628581,1.92984 0,0 z m 45.222656,0 c -3.360194,1.653789 3.23865,1.336765 0,0 z m 146.431646,0 c -3.3602,1.653781 3.23864,1.336772 0,0 z M 73.941406,70.771484 c -2.611101,2.255016 4.208163,1.889299 0,0 z m -20.417968,0.01563 c -2.633287,2.383006 2.559694,2.46784 0,0 z m 188.732422,0.05664 c -3.82568,1.333018 1.87591,2.60481 0,0 z m -32.32227,0.04297 c -4.57642,1.226284 2.73817,3.937893 0,0 z M 106.81641,71 c 0.40905,5.642783 6.66111,8.175003 0,0 z m 27.77734,0.0957 c -2.76853,1.537314 3.85615,1.790078 0,0 z m 105.4043,0.300781 c -6.78154,1.76287 4.04617,0.335241 0,0 z m -115.19532,0.03516 c -2.63327,2.383028 2.5597,2.467817 0,0 z m -108.291011,0.08398 c -5.869794,0.467881 0.316335,3.624007 0,0 z m 231.638671,0 c -0.78548,4.008375 5.14257,0.336279 0,0 z m -145.50977,0.455078 c -2.60493,1.711624 2.62631,2.633562 0,0 z m 59.38086,0 c -2.7312,2.961762 2.63266,1.443024 0,0 z m -82.816402,0.08984 c -1.924112,3.653589 4.617382,2.03728 0,0 z m 76.927732,0 c -4.58365,1.898767 1.81951,3.786613 0,0 z m -107.841794,0.01563 c -2.79275,3.116763 2.592039,2.865244 0,0 z m -8.75586,0.01367 c -4.46335,2.19737 2.878622,5.497809 0,0 z m 156.267574,0 c -2.81844,5.299535 4.36602,2.419658 0,0 z m -21.51562,0.314453 c -3.3602,1.653786 3.23866,1.336762 0,0 z M 9.8457031,72.623047 c -2.5978584,1.756169 2.5110069,1.546609 0,0 z m 76.9824219,0.398437 c -5.443048,1.439655 2.555321,1.038385 0,0 z m 12.914063,0.0332 c -3.660491,2.53966 1.538602,3.948326 0,0 z m -31.84961,0.0039 c -3.360915,1.654104 3.243091,1.333084 0,0 z m 158.654302,0.21875 c -2.32952,1.292663 2.85378,0.916482 0,0 z m -100.29102,0.339844 c -1.53807,1.790988 3.47517,1.11939 0,0 z m -79.488282,0.224609 c -1.745926,1.542867 2.819283,1.213632 0,0 z m -9.576172,0.744141 c -3.897154,2.63243 3.766647,2.317207 0,0 z m 190.279294,0 c -3.89714,2.632451 3.76666,2.317187 0,0 z m -198.433591,0.11914 c -3.604847,1.561239 3.419105,0.729674 0,0 z m 177.263671,0 c -3.05464,0.799252 3.20862,1.301207 0,0 z M 96.023438,74.925781 c -2.039023,0.980757 2.222025,1.475143 0,0 z m 84.470702,0 c -2.59785,1.756158 2.511,1.546614 0,0 z m -134.222656,0.09375 c -2.541998,4.290716 2.4812,1.651548 0,0 z m 17.146485,0 c -3.148907,0.786855 2.454594,1.445257 0,0 z m -12.298828,0.0957 c -3.550864,2.549366 4.162255,2.032112 0,0 z m 53.191409,0.125 c -3.8998,2.636039 3.77245,2.313745 0,0 z m 56.04101,0 c -3.89714,2.632452 3.76665,2.317185 0,0 z m -52.80273,0.25 c -1.85371,2.580065 2.87386,1.723681 0,0 z m 49.56445,0 c -2.88863,1.72016 1.83319,2.572588 0,0 z m -124.326171,0.09375 c -2.113932,1.946314 3.137074,1.732822 0,0 z m 102.205081,0.08984 c -3.2599,1.251358 2.34101,1.454219 0,0 z m -35.371096,0.265625 c -2.192168,1.530114 3.258766,4.138311 0,0 z m 65.421876,0 c -3.36622,3.990843 1.4945,2.979544 0,0 z m 84.44336,0.103516 c -3.36737,1.497548 2.22907,1.566312 0,0 z m -42.55469,0.191406 c -2.24718,1.598088 2.04652,1.30217 0,0 z m -67.50586,0.0078 c -5.55517,1.854593 -6.65396,6.46014 0.44531,3.332031 -2.7865,-1.077658 1.1088,-1.888682 -0.44531,-3.332031 z m 77.96289,0.347656 c -3.10265,1.468716 3.12797,1.224675 0,0 z M 4.8183594,76.667969 c -2.9671543,3.142695 3.8167687,1.687499 0,0 z m 184.3945306,0 c -2.58029,1.559254 2.39966,1.051714 0,0 z m 41.30664,0 c -3.7421,1.704492 2.79971,3.031923 0,0 z m -146.849608,0.07227 c -4.218453,2.220925 1.458103,2.007257 0,0 z m 67.998048,0 c -1.87894,1.852971 4.46041,2.882266 0,0 z m -86.367189,0.460938 c -2.64686,1.418591 2.567111,1.232278 0,0 z m 134.060549,0 c -2.04189,1.059807 2.15588,1.406418 0,0 z m 43.30664,0.177734 c -1.59793,0.622476 0.8318,2.453369 0,0 z m -132.07422,0.154297 c -3.43425,1.599851 0.91494,4.77531 0,0 z m -54.253906,0.146485 c 0.767891,4.448524 4.554697,2.245283 0,0 z m 18.193359,0.171874 c -4.519639,2.037165 3.110584,1.99212 0,0 z M 7.3320312,78.271484 c -0.8600532,1.465349 1.605203,0.606348 0,0 z m 81.0468748,0.01758 c -3.543129,1.44146 -0.669491,2.822034 0,0 z m -70.585937,0.220704 c -2.75313,1.844642 3.384842,2.433545 0,0 z m 229.076171,0 c -3.52275,2.38287 2.64917,1.921213 0,0 z m -216.597656,0.0625 c -2.913659,3.360649 2.39427,1.605372 0,0 z m 13.466797,0.05664 c -2.795719,1.088328 4.421848,2.274816 0,0 z m 147.861329,0 c -4.85956,2.604851 3.24455,0.94255 0,0 z m -15.58008,0.220703 c -3.34727,1.392121 2.29628,1.551362 0,0 z m -147.291014,0.21875 c -3.259353,1.073585 1.129373,2.749162 0,0 z m 135.599604,0.101563 c -1.24243,1.79937 2.31164,1.255701 0,0 z m 70.25,0.21875 c -1.75136,1.537371 2.81841,1.214343 0,0 z m -34.73828,0.115234 c -2.5996,1.754309 2.51219,1.543177 0,0 z m -130.767574,0.34375 c -2.749359,2.669001 4.903907,3.128345 0,0 z m -23.386719,0.404297 c -2.308182,1.204494 1.423512,1.941012 0,0 z m 78.144533,0.08789 c -3.82908,1.562246 3.34526,2.100529 0,0 z m -5.03125,0.130859 c -4.71673,1.245043 0.67351,3.755701 0,0 z m 27.06445,0 c -1.3298,1.476132 2.09419,1.343423 0,0 z m -71.652342,0.121094 c -2.295403,1.255718 1.264315,2.042529 0,0 z m 12.117187,0 c -1.307137,1.953117 2.320662,1.344563 0,0 z m 62.681645,0 c -2.29723,1.251687 1.26495,2.045237 0,0 z m 12.11718,0 c -1.30763,1.955151 2.31976,1.342303 0,0 z m -58.14648,0.267578 c -1.01676,1.387173 3.37679,0.972519 0,0 z m 117.41015,0.04687 c -2.59949,1.758045 2.51594,1.541121 0,0 z m -106.5625,0.128906 c -1.74568,1.545403 2.81925,1.211694 0,0 z M 51.521484,81.125 c -0.558079,2.29662 3.14911,0.562658 0,0 z m 161.619136,0 c -3.26779,0.859976 0.62862,1.929817 0,0 z M 67.203125,81.369141 c -1.018602,4.993913 4.284831,0.05998 0,0 z m 100.931645,0 c -4.28214,0.309663 0.96972,4.590511 0,0 z M 16.236328,81.505859 c -2.948416,1.327382 2.494404,2.208732 0,0 z m 202.865232,0.002 c -2.49645,2.2047 2.9487,1.325278 0,0 z M 76.925781,81.630859 c -0.168135,2.942521 3.853122,1.720686 0,0 z m -38.693359,0.154297 c -1.845546,2.130887 2.253259,2.032632 0,0 z m -12.634766,0.113282 c -3.67385,1.431798 2.101105,2.790995 0,0 z m 39.226563,0 c -2.597864,1.756163 2.511004,1.546613 0,0 z m 105.689451,0 c -2.59786,1.756168 2.511,1.546608 0,0 z m 39.22656,0 c -1.83153,3.32403 5.30658,0.535643 0,0 z m -196.525386,0.05859 c -4.337798,0.75722 2.143419,1.856792 0,0 z m 123.388676,0.25586 c -2.30574,1.208452 1.42661,1.938512 0,0 z M 20.171875,82.392578 c -2.070142,1.043973 2.177754,1.379867 0,0 z m 89.335935,0.04102 c -5.00395,2.377823 3.14592,1.702336 0,0 z m 5.44336,0 c -4.39333,0.30659 2.73268,2.79087 0,0 z m 34.75977,0 c -2.59949,1.758013 2.51591,1.541152 0,0 z m 5.44336,0 c -3.14261,1.702658 5.00299,2.377226 0,0 z m 84.77343,0.11914 c -2.29506,1.253864 1.26529,2.048088 0,0 z m -55.66406,0.07031 c -1.02354,2.243705 2.98514,1.76728 0,0 z m 7.19336,0.804687 c -2.59959,1.754291 2.51216,1.5432 0,0 z m -89.17578,0.25586 c -2.5645,1.628974 1.37242,1.774919 0,0 z m -7.466797,0.132812 c -4.985571,1.426916 0.452358,2.916195 0,0 z m -86.6386718,0.04492 c -4.1025282,3.008968 0.9155116,2.598375 0,0 z m 218.9863288,0 c -0.91862,2.599063 4.10307,3.008596 0,0 z m -190.388672,0.09375 c 0.304611,2.518298 3.730714,1.777795 0,0 z m 161.791012,0 c -4.22718,2.163186 -0.29373,2.809725 0,0 z m -111.550778,0.07227 c -1.873707,2.561807 2.915179,1.681518 0,0 z m -37.689453,0.375 c -1.144816,3.140139 5.568639,1.041867 0,0 z m 166.013671,0 c -5.56863,1.041866 1.14481,3.14014 0,0 z m -139.513671,0.02344 c -3.580039,2.391178 3.28952,2.207169 0,0 z m -54.056641,0.546875 c -1.247327,1.798019 2.313961,1.257215 0,0 z m 167.085942,0.302735 c -1.74555,1.539377 2.81523,1.210693 0,0 z M 45.728516,85.388672 c -2.549488,1.590281 2.629798,2.646062 0,0 z m 86.693364,0.167969 c -1.39129,3.410459 4.26236,1.166407 0,0 z m 73.61523,0.05664 c -1.09476,1.914628 4.39284,2.446104 0,0 z m -146.578126,0.08984 c -0.1172,2.250026 3.408057,1.230354 0,0 z m 59.482426,0 c -3.34395,2.01827 1.41105,2.471661 0,0 z m 26.77929,0 c -1.45374,2.456505 4.03023,2.822115 0,0 z m 59.48242,0 c -2.30575,1.208491 1.42665,1.938477 0,0 z m 13.50782,0.01172 c -2.63608,1.740783 2.54545,1.514359 0,0 z m 21.31836,0.175781 c -3.45123,1.15942 0.21835,5.880667 0,0 z m -158.015628,0.02734 c -1.072441,3.71399 4.363871,0.146168 0,0 z m -19.441406,0.455078 c -3.580645,1.319253 2.702456,2.669656 0,0 z m 5.115234,0.103515 c -2.541032,1.508534 3.152606,0.670414 0,0 z m 99.96289,0 c -3.14165,0.711757 2.46508,1.485253 0,0 z m -78.777343,0.22461 c -2.835333,1.175729 1.729138,1.561643 0,0 z m 14.755863,0.310547 c -2.43411,1.309219 3.20898,1.403433 0,0 z m 57.40429,0 c -3.25776,1.252986 2.34695,1.446657 0,0 z m -76.316403,0.11914 c -2.766329,1.539989 3.852165,1.78721 0,0 z m 65.904293,0 c -3.34286,1.396623 2.29941,1.549561 0,0 z m 36.35938,0.220703 c -4.96648,4.108499 1.20573,4.82499 0,0 z M 6.8046875,87.552734 c -3.2563603,1.313872 2.3157838,1.320513 0,0 z m 193.5683625,0 c -2.56875,1.632914 1.37903,1.771433 0,0 z m 17.10742,0.09766 c -3.81504,1.912859 1.76665,1.371994 0,0 z m -118.064454,0.01367 c -2.597864,1.756165 2.511014,1.546609 0,0 z m 65.830074,0 c -2.59785,1.756161 2.511,1.546614 0,0 z M 13.400391,88.046875 c -3.106374,1.469349 3.133998,1.22426 0,0 z m 208.537109,0 c -2.97856,1.205453 2.95224,1.50572 0,0 z M 49.212891,88.439453 c -2.522108,2.762395 3.525388,3.785601 0,0 z m 144.277339,0.04297 c -0.60965,3.74373 2.21587,2.756919 0,0 z M 89.503906,88.802734 c -4.618642,1.81791 2.614395,5.856231 0,0 z m -6.224609,0.175782 c -4.003764,3.244651 2.308089,2.984363 0,0 z m 46.710933,0.669922 c -4.56441,3.201484 2.65491,2.867692 0,0 z m -96.212886,0.002 c 1.237537,3.907581 -5.870702,0.818031 -0.234375,4.548828 1.370136,-1.15474 2.558882,-3.650765 0.234375,-4.548828 z m 197.109376,0 c -3.00782,6.458664 6.26184,2.075219 0.19531,1.294921 -0.9328,3.01e-4 -0.25802,-0.883755 -0.19531,-1.294921 z m -212.871095,0.0957 c -3.360189,1.653788 3.238649,1.33676 0,0 z m 40.322266,0 c -2.588433,1.362704 3.614976,1.529618 0,0 z m 118.662109,0 c -3.16772,1.13592 2.21227,1.491234 0,0 z m 40.32227,0 c -3.36019,1.65378 3.23863,1.336769 0,0 z M 54.087891,89.851562 c -1.745582,1.542938 2.815592,1.212538 0,0 z m 156.486329,0 c -2.42306,1.657447 6.96024,3.636464 0,0 z m 29.67773,0.376954 c -3.17913,2.42195 2.07649,2.626872 0,0 z m -129.32422,0.171875 c -3.36017,1.653796 3.23865,1.336748 0,0 z m 13.48243,0 c -3.3602,1.653775 3.23864,1.336771 0,0 z M 24.398438,90.554688 c -6.109818,1.724049 -0.251214,2.530207 0,0 z M 143.125,90.775391 c -2.7719,3.538892 3.21532,2.012227 0,0 z m -67.841797,0.04492 c -3.059884,4.718433 5.042313,1.189753 0,0 z m 55.560547,0.453126 c -2.5497,1.594683 2.63049,2.646606 0,0 z M 24.462891,91.708984 c -4.228706,3.144894 3.892304,0.938991 0,0 z m 60.65039,0 c -3.257732,1.253555 2.347445,1.449002 0,0 z m 65.109379,0 c -2.34253,1.488862 3.16396,1.191888 0,0 z m 60.65039,0 c -3.58913,2.226647 2.12559,2.500355 0,0 z m -28.72852,0.21875 c -2.29543,1.25569 1.26415,2.046435 0,0 z m -90.320311,0.341797 c -1.800421,2.361958 2.895615,3.256651 0,0 z m 156.501951,0.195313 c -2.86769,1.691962 2.72907,2.171347 0,0 z M 8.9746094,92.582031 c -2.0376523,0.976326 2.2177006,1.480468 0,0 z m 17.0820316,0.128907 c -2.069582,1.043275 2.178229,1.37814 0,0 z m 191.597659,0.09766 c -2.93162,1.156045 4.58505,1.173141 0,0 z m -93.41797,0.695312 c -4.66589,3.272928 1.88399,2.527879 0,0 z m -11.13281,0.148438 c -5.60784,1.727304 0.6516,4.845306 0,0 z m 127.7539,0.01758 c -3.17023,3.631091 1.87293,2.190424 0,0 z M 90.8125,93.970703 c -3.991559,-0.0241 2.355309,0.91558 0,0 z m -32.269531,0.01367 c -2.597856,1.756165 2.511005,1.546606 0,0 z M 151.98047,94 c -2.56492,1.635166 1.3781,1.769531 0,0 z m -32.79297,0.02344 c -4.62833,1.501367 -0.24346,4.821204 0,0 z m -99.126953,0.203124 c -6.925566,1.279369 6.35942,2.467884 1.4375,0.447266 l -1.4375,-0.447266 z m 195.216793,0 c -9.32216,2.38267 7.4255,1.598324 0,0 z M 8.5546875,94.34375 c -1.5764478,2.162424 4.5105575,2.077893 0,0 z m 55.8730465,0.201172 c -2.039673,0.974733 2.218802,1.480407 0,0 z m -4.191406,0.216797 c -3.051003,1.501137 3.272236,1.69962 0,0 z m -4.318359,0.435547 c -3.584595,1.387446 4.469959,0.890054 0,0 z m 26.771484,0.189453 c -2.637192,1.742582 2.546445,1.516325 0,0 z M 229.8418,96.066406 c -2.0465,3.466972 3.01194,0.90549 0,0 z M 15.564453,96.939453 c -4.85449,2.606157 3.243811,0.940424 0,0 z m 204.208987,0 c -2.79876,1.088825 4.42243,2.274745 0,0 z M 48.078125,97.669922 c -2.529334,3.499288 5.669376,6.878178 0,0 z m 25.076172,0.0098 c -2.733188,2.612892 4.761802,2.096345 0,0 z m -30.578125,0.189453 c -3.728482,1.994561 7.109039,2.173699 0,0 z m 47.8125,0.259765 c -2.043473,1.055997 2.151978,1.406741 0,0 z m 83.884768,0 c -2.6485,1.415385 2.57236,1.233641 0,0 z m -91.812502,0.22461 c -1.745269,1.541927 2.81517,1.208738 0,0 z m 99.742182,0 c -2.84208,1.167187 1.73059,1.564228 0,0 z M 51.560547,98.513672 c -2.636089,1.740808 2.545477,1.514338 0,0 z m 147.138673,0 c -2.21034,0.355713 -1.08819,2.084818 -0.96116,2.529598 -0.16478,-0.62484 2.93459,-2.050241 0.96116,-2.529598 z m -96.1582,0.128906 c -4.33392,1.716792 0.055,2.839152 0,0 z m -15.632817,0.248047 c -3.678261,0.510204 0.188776,3.291855 0,0 z M 8.7109375,99.042969 c -2.1841159,1.962901 2.6424315,1.292671 0,0 z m 27.7832035,0.164062 c 1.406264,5.201349 4.888531,1.267569 0,0 z m -19.591797,0.595703 c -2.631712,1.739086 2.538573,1.521216 0,0 z m 67.111328,0.06836 c -3.313537,1.388576 3.203076,1.080966 0,0 z m 141.462888,0.462886 c -1.10321,2.33448 3.93317,1.96498 0,0 z m -154.205076,0.5293 c -2.038854,0.97848 2.218438,1.48224 0,0 z m 92.794926,0 c -2.58595,1.56139 2.40178,1.05492 0,0 z m -97.525394,0.0449 c -8.930294,0.56471 2.465376,4.57248 1.399283,1.10813 l -0.594596,-0.75656 -0.804687,-0.35157 z m 124.916014,0.17578 c -2.59686,1.75443 2.51012,1.54459 0,0 z m -21.7793,0.004 c -1.74494,1.54397 2.81424,1.21297 0,0 z m -91.027339,0.0781 c -4.190241,1.81716 1.081551,2.60512 0,0 z m -33.271485,0.0625 c -3.249534,0.50299 2.603378,0.65168 0,0 z m 9.636719,0.29296 c -3.73109,1.73942 2.791014,3.65382 0,0 z m 154.630855,0 c -2.94934,3.80344 3.78645,1.61447 0,0 z m -94.40625,0.0254 c -4.02946,1.70454 1.48954,1.62686 0,0 z m 4.85743,0 c -0.85005,1.97785 3.07631,1.02994 0,0 z m -111.9941444,0.0762 c -2.5079852,1.05388 1.4422338,1.48746 0,0 z M 118.5918,101.73828 c -2.60224,1.75788 2.51795,1.53975 0,0 z m 77.3789,0 c -2.59959,1.75429 2.51217,1.54319 0,0 z m 9.92188,0 c -2.75939,2.9161 2.65582,1.4204 0,0 z m 30.6543,0.0254 c -0.46021,2.54109 3.2969,1.45516 0,0 z m -65.18165,0.20703 c -3.63539,0.12398 -2.26567,3.32648 0,0 z m -74.285152,0.3086 c -3.687618,2.41484 1.286338,2.31466 0,0 z m 41.175782,0 c -1.21219,2.84392 3.53522,1.56929 0,0 z m -36.50977,0.20703 c -2.042364,1.05904 2.15153,1.40401 0,0 z m -90.648434,0.15039 c -2.7298004,2.41587 3.609493,3.68005 0,0 z m 40.462891,0.39062 c -2.754541,2.91174 2.652132,1.42276 0,0 z m 36.621094,0 c -2.627745,1.68916 2.647019,2.58368 0,0 z m 4.578125,0 c -2.754535,2.91171 2.652125,1.42279 0,0 z m 69.318354,0 c -2.63606,1.74083 2.54548,1.51433 0,0 z m 11.02735,0.0254 c -3.06816,4.07918 2.33236,0.95965 0,0 z m 24.61328,0.0352 c -1.69321,2.12597 2.20848,2.56362 0,0 z m -122.410156,0.0527 c -2.594365,2.39918 2.521761,2.51455 0,0 z m 42.595706,0 c -2.3104,1.20253 1.42796,1.93901 0,0 z m -47.109378,0.65235 c -2.597854,1.75616 2.511,1.54661 0,0 z m -37.546875,0.40625 c -0.591548,2.70403 3.574578,1.20545 0,0 z m 198.166013,0 c -4.56217,1.83399 1.07203,2.50549 0,0 z m -144.978513,0.29492 c -1.835236,4.13787 5.71093,5.49567 0,0 z m 32.537113,0.13672 c -3.23907,1.41436 2.02251,1.77 0,0 z m -37.330082,0.33203 c -2.070859,1.04036 2.177972,1.37798 0,0 z m 54.720702,0.0449 c -2.29722,1.25173 1.26497,2.0452 0,0 z m -86.14453,0.53907 c -1.745265,1.54193 2.815164,1.20873 0,0 z m 164.22461,0 c -2.83711,1.16821 1.72978,1.56304 0,0 z m -199.666016,0.11523 c -2.599599,1.75428 2.512163,1.54319 0,0 z m 143.771486,0.043 c -2.63038,2.37722 2.55381,2.46967 0,0 z m 36.54297,0.17578 c -3.26108,1.07056 1.12837,2.75054 0,0 z m -135.345706,0.32031 c -2.83712,1.16822 1.729781,1.56305 0,0 z m 145.169926,0 c -1.74529,1.54192 2.81518,1.20875 0,0 z m -202.0527388,0.043 c -8.3041839,-0.19755 5.0019456,3.39863 2.4612919,0.14596 l -2.4612919,-0.14596 z m 229.6113288,0 c -9.32928,0.62444 5.71493,2.50633 1.99705,0.07 l -1.99705,-0.07 z m -54.66211,0.008 c -6.97175,1.30738 2.8885,2.79532 0,0 z m -22.46484,0.0625 c -2.59787,1.75616 2.511,1.54663 0,0 z m -103.033207,0.0137 c 3.834989,1.48212 2.904717,6.99659 4.605469,2.12305 -1.252679,-0.42431 -2.758392,-2.3328 -4.605469,-2.12305 z m 130.708987,0 c -7.9806,1.23948 -2.98105,7.28729 -1.46875,1.06641 -2.59484,1.37648 2.86966,-1.13125 1.46875,-1.06641 z m -70.4043,0.60547 c -3.83067,1.5547 3.34494,2.10169 0,0 z m 10.09961,0 c -3.44655,2.46115 3.67474,1.23119 0,0 z m 10.70508,0.0352 c -2.58037,1.56178 2.39888,1.0493 0,0 z m 8.58203,0.26367 c -3.4923,2.32034 2.74483,2.89509 0,0 z m 78.96289,0.041 c -3.68133,0.50757 0.18676,3.29367 0,0 z m -13.76758,0.26758 c -2.18221,0.46499 1.77433,2.0608 0,0 z m -15.39648,0.28515 c -6.1818,0.85757 2.01662,1.72913 0,0 z M 24.617188,107.9375 c -2.042223,1.05814 2.152017,1.40489 0,0 z m 215.427732,0 c -2.64763,1.41286 2.56999,1.23645 0,0 z m -210.099608,0.11914 c -2.044181,0.97514 2.220062,1.48441 0,0 z m 175.447268,0 c -2.58091,1.56342 2.40055,1.05253 0,0 z m -102.27539,0.2207 c -2.59685,1.75442 2.51012,1.5446 0,0 z m -42.750002,0.55664 c -6.312935,2.55961 3.421966,1.4334 0,0 z m 114.603512,0 c -3.00339,1.93478 4.8457,1.45728 0,0 z m -164.749997,0.85547 c -2.7260113,4.09836 5.081316,1.23686 0,0 z m 136.767577,0.0156 c -1.02353,2.2437 2.98515,1.76728 0,0 z m -113.761718,0.10547 c -4.578105,1.01417 2.188718,2.97574 0,0 z m 175.427738,0.0137 c -2.09177,3.31583 2.23824,0.81121 0,0 z m -5.10742,0.19531 c -2.8481,1.75725 -0.0721,3.28436 0,0 z M 47.488281,110.1543 c -1.906643,1.50997 1.603692,2.27794 0,0 z m 169.685549,0 c -1.88175,3.00358 2.07805,1.34881 0,0 z m 14.91211,0.006 c -2.97423,1.20427 2.95016,1.50702 0,0 z m -129.37305,0.17382 c -3.360927,1.65411 3.24309,1.33309 0,0 z m 96.64063,0.43164 c -2.06958,1.04326 2.17821,1.37816 0,0 z m -76.08008,0.0977 c -3.72966,4.34546 2.71096,5.28745 0,0 z m 2.77344,0.0293 c -2.29739,1.25023 1.25977,2.05106 0,0 z m 40.26171,0 c -2.03765,0.97632 2.2177,1.48048 0,0 z m -149.976559,0.34961 c -4.311185,2.21379 3.240107,3.51917 0.295675,0.2602 l -0.295675,-0.2602 z m 231.999999,0 c -2.19751,2.99985 1.32183,4.03829 1.4082,1.07031 l -1.4082,-1.07031 z m -74.11719,0.16797 c -3.25637,1.31388 2.3158,1.3205 0,0 z m -131.675778,0.0469 c -5.326736,4.19986 6.423738,3.82798 0,0 z m 179.583988,0 c -6.38951,5.95634 3.84905,3.9451 0,0 z m -8.4043,0.27344 c -1.03119,1.96331 1.20845,2.1067 0,0 z M 64.125,111.75391 c -1.873665,2.56045 2.915739,1.68352 0,0 z m 113.26758,0.0644 c -4.33795,0.75917 2.14305,1.85891 0,0 z m -47.27539,0.47656 c -2.59786,1.75617 2.511,1.54662 0,0 z m 4.47656,0 c -2.76849,1.53734 3.85609,1.79005 0,0 z m -122.058594,0.33985 c -2.5978675,1.75616 2.511008,1.5466 0,0 z m 84.058594,0.2207 c -1.531774,1.79403 3.47705,1.11094 0,0 z m -50.960938,0.3125 c -2.950975,1.24996 2.859551,1.34849 0,0 z m 173.396488,0 c -2.90928,1.47097 2.87659,1.16275 0,0 z m 17.48242,0.43555 c -2.59686,1.75442 2.51013,1.54459 0,0 z m -134.70703,0.44531 c -1.74552,1.53939 2.81522,1.21068 0,0 z m 61.05273,0 c -2.83715,1.16997 1.72985,1.56087 0,0 z m -86.253904,0.2207 c -1.211977,2.84146 3.534248,1.57763 0,0 z m -39.06836,0.20703 c -1.332251,1.47761 2.094853,1.34268 0,0 z m 189.591794,0 c -2.30706,1.21325 1.4294,1.93328 0,0 z m -213.318356,0.1211 c -1.537857,1.78845 3.475017,1.11661 0,0 z m 37.113281,0 c -2.535512,1.51081 3.151035,0.66448 0,0 z m 133.494145,0 c -3.14148,0.70808 2.4654,1.48532 0,0 z m -80.37305,0.13672 c -3.94729,2.5627 4.07286,2.46601 0,0 z m -80.601564,0.54492 c -2.636083,1.74079 2.545468,1.51434 0,0 z m 116.070314,0.1914 c -2.54104,1.50854 3.1526,0.67043 0,0 z m -84.111329,0.6543 c -2.596851,1.75442 2.510126,1.5446 0,0 z m 7.195312,0.33984 c -2.483996,2.66218 1.455283,2.74414 0,0 z m -17.402344,0.0937 c -4.391025,1.54988 3.304506,1.49427 0,0 z m 144.949221,0 c -3.75891,1.61037 4.78364,1.68317 0,0 z m -112.929689,0.12696 c -5.167023,2.00098 0.366851,4.28649 0,0 z m 80.912109,0 c -0.56736,3.75292 4.89365,1.81498 0,0 z m -108.574219,0.0312 c -2.479434,1.70511 2.354513,3.42724 0,0 z m 115.214839,0.0625 c -4.98957,3.53452 2.10151,2.66624 0,0 z m -127.652339,0.3125 c -4.243726,1.8479 5.437673,2.26377 0,0 z m 190.437499,0 c -5.78957,2.5616 4.16276,1.63917 0,0 z m -120.89062,0.0371 c -1.87835,2.99726 2.07792,1.35061 0,0 z m -20.150394,0.39257 c -3.163571,2.55237 2.336175,1.64529 0,0 z m 62.318354,0 c -2.0317,1.74294 2.71252,1.99405 0,0 z m -91.900386,0.13086 c -1.109505,2.62652 3.162166,1.21963 0,0 z m 85.951176,0.006 c -3.49106,2.11328 2.45277,1.98709 0,0 z m 100.47656,0.0899 c -1.73832,2.08866 3.00445,1.85068 0,0 z M 18.791016,118.0918 c -1.745517,1.54036 2.816444,1.21151 0,0 z m 197.755864,0 c -2.84475,1.16817 1.72986,1.56306 0,0 z m 22.49218,0.27343 c -3.75594,1.89158 5.64497,2.45288 0,0 z m -47.5332,0.13868 c -2.63178,1.68592 2.65045,2.5885 0,0 z m -61.28125,0.98437 c -4.75201,4.60972 2.24883,4.22354 0,0 z m -119.148438,0.2207 c -2.5995861,1.75429 2.512152,1.54319 0,0 z m 4.388672,0.19336 c -4.47902,2.88335 2.692901,1.27991 0,0 z m 204.408206,0 c -2.24542,1.47972 3.90197,2.2812 0,0 z M 6.3417969,120.12891 c -3.9768042,-0.0189 2.3509296,0.91171 0,0 z m 234.8417931,0.6289 c -0.93695,2.0086 1.16304,2.09458 0,0 z m -212.910152,0.54297 c -3.012666,1.8475 1.699816,2.03847 0,0 z M 179.25,121.41797 c -2.67043,1.8645 3.38575,0.37498 0,0 z m -97.464844,0.0195 c -4.039399,-0.0256 2.36956,0.91008 0,0 z m 12.677735,0.35352 c -5.236666,1.61192 4.144568,2.34285 0,0 z m 46.410159,0 c -4.14366,2.34229 5.23704,1.61236 0,0 z m -82.632816,0.25586 c -1.764387,1.52426 2.856814,1.19194 0,0 z m 111.031246,0.32421 c -1.3623,2.00901 4.20257,1.06799 0,0 z m -122.300777,0.31836 c -0.459905,2.54375 3.299258,1.45571 0,0 z m 141.396487,0 c -3.53048,2.14149 0.58263,3.78461 0,0 z m -57.94141,0.28907 c -2.64763,1.41285 2.56998,1.23645 0,0 z m 3.81055,0 c -2.04236,1.05902 2.15153,1.40401 0,0 z m 2.05078,0.33984 c -2.53519,1.51041 3.15116,0.66812 0,0 z m 101.1543,0.0937 c -2.3353,1.43698 3.13533,1.24284 0,0 z m 9.38867,0 c -2.04674,1.05397 2.15321,1.41081 0,0 z m -193.349611,0.33984 c -3.360196,1.6538 3.238651,1.33677 0,0 z m 128.376951,0 c -3.36519,1.65235 3.23994,1.33826 0,0 z m -119.613279,1.09766 c -2.783869,2.88216 2.263706,3.77368 0,0 z m 5.898437,0.0898 c -3.360965,1.65561 3.243054,1.33481 0,0 z m 128.376952,0 c -3.3602,1.6538 3.23866,1.33676 0,0 z M 12.160156,125.2793 c -2.4162978,1.56083 3.433635,1.47737 0,0 z m -9.2402341,0.22461 c -1.7459358,1.54287 2.8192912,1.21362 0,0 z m 110.6542981,0.13086 c -3.1006,1.46716 3.12114,1.22628 0,0 z m 88.24609,0.0176 c -0.34052,2.33953 3.31172,1.24599 0,0 z m -86.30664,0.28711 c -1.74526,1.54193 2.81516,1.20874 0,0 z m 4.31055,0 c -2.8371,1.16823 1.72978,1.56304 0,0 z m -40.140626,0.25586 c -2.296535,1.58696 4.154762,1.54218 0,0 z m 29.201176,0.15235 c -4.86592,1.72572 4.88375,2.37742 0,0 z m 46.89257,0 c -4.87988,2.37927 4.86984,1.72349 0,0 z m 35.72852,0.53711 c -2.07016,1.04398 2.17777,1.37984 0,0 z m -70.61719,0.0254 c -5.05509,4.03411 2.01448,5.20292 0,0 z m 101.50781,0.29101 c -3.29461,1.04786 1.13264,2.71505 0,0 z m -151.398433,0.3125 c -4.467251,0.69606 2.156819,1.95901 0,0 z m -62.1894532,0.13867 c -0.756387,2.19382 0.7302743,2.0523 0,0 z m 159.7304662,0.38868 c -3.27141,0.50131 2.61391,0.65064 0,0 z m -139.406248,0.25195 c -0.864715,2.71685 3.933728,1.44305 0,0 z m 206.396488,0 c -3.8999,1.44231 0.65285,2.76956 0,0 z m 3.39453,0.69141 c -2.59685,1.75442 2.51013,1.54459 0,0 z m 5.05859,0.36523 c -3.27668,0.50268 2.61517,0.64699 0,0 z M 9.4023438,129.51367 c -0.6478817,3.98805 5.8569232,0.6817 0,0 z m 48.8378902,0.29492 c -1.873663,2.56045 2.915737,1.68354 0,0 z m 49.490236,0.90625 c -3.65665,0.90077 1.55594,2.90285 0,0 z m -101.7441419,0.0156 c -1.1103074,2.63012 3.1630583,1.22108 0,0 z m 80.5214839,0.002 c -5.659121,3.16009 1.336569,3.57544 0,0 z m -52.802734,0.0937 c -2.653072,1.41458 2.572132,1.23454 0,0 z m 56.603516,0 c -1.713897,2.74572 4.994233,3.11973 0,0 z m 10.378906,0 c -1.49488,2.90521 3.21822,1.26343 0,0 z m 63.28711,0 c -3.201,1.26473 1.44701,2.89163 0,0 z m 10.37891,0 c -6.5179,3.72507 2.63697,2.49891 0,0 z m 56.60546,0 c -2.04347,1.05601 2.15199,1.40673 0,0 z m -38.54492,0.002 c -1.73745,2.08609 3.00363,1.84808 0,0 z m 8.38086,0.0176 c -3.00156,4.9584 1.33226,0.64122 0,0 z m -177.541014,0.0996 c -6.532951,2.69627 3.776302,2.63859 0,0 z m 188.830074,0 c -3.70805,2.68156 6.28703,2.39913 0,0 z m -68.6289,0.22071 c -2.09168,1.17704 1.36045,2.66672 0,0 z m 44.36719,0.30078 c -2.45094,2.6902 1.50297,2.82532 0,0 z m -128.363286,0.66601 c -3.480546,1.32737 4.198409,1.34692 0,0 z m 145.744136,0 c -4.48529,1.68597 3.52227,1.11205 0,0 z m -10.60351,0.43555 c -2.5996,1.75429 2.51216,1.54319 0,0 z m -48.96289,0.55859 c -3.57519,2.40792 4.91839,1.95237 0,0 z m 80.92187,0.30469 c -2.63607,1.74082 2.54548,1.51432 0,0 z m -116.20898,0.0508 c -3.1027,1.46869 3.12801,1.22472 0,0 z m 62.20312,0.39258 c -1.65767,1.30994 2.73754,2.84192 0.55978,0.30497 l -0.55978,-0.30497 z m -143.287105,0.2207 c -5.407338,3.11757 0.824616,6.64577 0.339206,0.19227 l -0.339206,-0.19227 z m 206.130855,0 c -1.50583,1.71238 3.26317,1.14156 0,0 z m -212.124996,0.11914 c -2.297391,1.25025 1.259787,2.05107 0,0 z m 188.794926,0 c -1.30784,1.9591 2.32219,1.3411 0,0 z m -146.343754,0.14258 c -2.970608,1.20377 2.949874,1.50322 0,0 z m 133.216794,0 c -3.10209,1.46647 3.12328,1.22221 0,0 z m -111.546872,0.51172 c -2.580373,1.56178 2.398888,1.0493 0,0 z m 60.552732,0 c -2.03765,0.9763 2.21772,1.48055 0,0 z m 58.92969,0.11719 c -4.5636,4.66345 6.03031,4.54229 0,0 z m -193.386719,0.10351 c -2.599585,1.75429 2.512157,1.5432 0,0 z m -12.4667966,0.28907 c -2.7242853,3.30915 3.5801658,3.29746 0.5039062,0.11523 l -0.5039062,-0.11523 z m 125.9648456,0.004 c -3.33714,4.16233 2.80361,4.98804 0,0 z m -96.015627,0.043 c -3.232629,1.57256 3.269627,2.09582 0,0 z m 173.396487,0 c -3.28391,2.13926 3.22027,1.53162 0,0 z m -51.75586,0.41211 c -1.51102,1.70793 3.26054,1.14586 0,0 z m 84.85351,0.21875 c -2.59786,1.75618 2.51102,1.54659 0,0 z m -4.08203,0.12109 c -2.73212,2.55719 5.39884,2.55496 0,0 z m -118.375,0.21875 c -2.34234,1.4902 3.16373,1.19332 0,0 z m 4.875,0 c -2.59786,1.75617 2.511,1.54662 0,0 z m 65.73828,0.16211 c -2.63176,1.68595 2.65043,2.58849 0,0 z m -149.347652,0.1211 c -0.879862,1.9856 0.787477,1.95378 0,0 z m 36.582031,0.43164 c -2.694226,1.79274 3.462604,0.43454 0,0 z m 3.333984,0.18945 c -3.39764,1.55841 2.294586,1.47353 0,0 z m 48.162107,0.49805 c -2.30706,1.21326 1.4294,1.93325 0,0 z m 115.16992,0 c -4.77395,1.64718 3.60338,3.93521 0,0 z m -191.894527,0.2207 c -2.955657,1.76537 -0.304672,3.327 0,0 z m 169.408207,0 c -3.17068,3.3294 3.88931,2.21922 0,0 z m -133.593754,0.006 c -1.745523,1.53939 2.815225,1.21068 0,0 z m -50.498047,0.11328 c -2.094211,1.17729 1.356808,2.67109 0,0 z m 169.451171,0 c -1.42494,3.09706 2.22383,1.198 0,0 z m -152.001952,0.0274 c -1.763747,1.52535 2.855435,1.19231 0,0 z m 96.894532,0.19336 c -3.36488,1.64931 3.23965,1.33554 0,0 z M 41.347656,138.5293 c -2.269127,1.99296 1.833059,2.17552 0,0 z m 61.033204,0.1875 c -1.70963,1.23423 2.85509,2.49583 0,0 z m -84.328126,0.0762 c -3.14334,0.71418 2.471045,1.48324 0,0 z m 51.494141,0.29297 c 3.328832,2.58827 -7.602318,6.92419 1.498047,2.67578 2.56393,-0.43512 -0.142239,-2.11323 -1.498047,-2.67578 z m 125.570315,0 c -7.94009,2.57235 9.36865,7.35399 -0.91407,1.54883 0.046,-0.0135 2.14787,-1.35076 0.91407,-1.54883 z m -121.697268,0.57031 c 0.968787,2.98614 4.498,0.10992 0,0 z m 117.822268,0 c -4.73091,-0.0777 -1.1254,3.30537 0,0 z m -44.35938,0.75977 c -2.5996,1.75429 2.51217,1.54319 0,0 z m -38.62109,0.25 c -3.49506,2.31972 2.74497,2.89303 0,0 z m -63.404298,0.19336 c -2.837629,1.1718 1.730074,1.56423 0,0 z m 174.947268,0 c -1.7463,1.54435 2.82058,1.21127 0,0 z m -209.599612,0.12109 c -2.8371195,1.16822 1.729786,1.56304 0,0 z m 214.925782,0 c -1.7392,1.54608 2.81866,1.20444 0,0 z m -165.431641,0.10156 c -6.92797,1.50948 2.90513,1.05013 0,0 z m -29.552735,0.0898 c -4.083921,1.97562 1.771047,1.78161 0,0 z m 12.400391,0.21874 c -0.800989,1.94605 2.411167,0.80451 0,0 z m 84.576175,0.082 c -3.4468,2.46085 3.67469,1.2312 0,0 z m 10.41601,0 c -3.83061,1.55476 3.34516,2.10136 0,0 z m 24.97071,0.34179 c -4.83472,0.70453 6.16798,6.57164 0,0 z m -45.6836,0.13282 c -2.83534,1.17572 1.72914,1.56164 0,0 z m -43.679686,0.11523 c -5.515955,2.68512 4.420662,1.31385 0,0 z m -54.722656,0.18359 c -12.1632581,1.76386 7.97924,2.05384 0,0 z m 227.814452,0 c -8.10002,2.73516 10.83229,0.87569 0,0 z m -154.787108,0.11524 c -2.628162,2.3843 2.557821,2.46303 0,0 z m 3.201172,0.0156 c -2.597857,1.75617 2.511003,1.54661 0,0 z m -39.083985,0.22071 c -2.970262,1.89225 1.685864,2.05466 0,0 z m -10.734375,0.11914 c -2.038513,0.97791 2.218205,1.47768 0,0 z m 145.669926,0 c -2.58029,1.55925 2.39967,1.05172 0,0 z m 44.71875,0.31445 c -2.59686,1.75441 2.51013,1.54461 0,0 z m -199.416019,0.33984 c -2.580281,1.5593 2.399634,1.0517 0,0 z m 163.724609,0 c -2.0385,0.97792 2.2182,1.4777 0,0 z m -85.49609,0.31446 c -2.3104,1.20252 1.42797,1.939 0,0 z m 54.06836,0.28515 c -1.76431,1.52167 2.85762,1.191 0,0 z m -36.58008,0.043 c -3.81041,1.52364 2.27876,1.85723 0,0 z m -112.160159,0.22852 c -4.040329,2.52873 3.529604,0.53511 0,0 z m 196.609379,0 c -2.72779,0.26733 2.89941,3.02023 0,0 z m -138.289066,0.52539 c -4.060601,0.86268 0.398484,3.49405 0,0 z m 97.007816,0.13086 c -2.59435,2.39917 2.52176,2.51455 0,0 z m 4.51367,0 c -2.59786,1.75616 2.51101,1.5466 0,0 z m 59.20312,0.0937 c -2.46708,2.528 3.79718,2.96089 0,0 z m -186.384762,0.0137 c -1.892143,2.85531 2.49734,2.11311 0,0 z m 105.470702,0.2793 c -2.92945,1.68072 1.85125,2.55136 0,0 z m 4.07031,0 c -1.87359,2.55965 2.9153,1.6831 0,0 z m 37.12891,0 c -2.92944,1.68072 1.85125,2.55136 0,0 z m -66.19922,0.26757 c -2.29722,1.25173 1.26497,2.04522 0,0 z m -44.572265,0.13086 c -2.63609,1.7408 2.545475,1.51436 0,0 z m 22.978515,0.1836 c -1.658,1.31035 2.73719,2.83912 0.55978,0.30399 l -0.55978,-0.30399 z m 42.86133,0 c -3.34478,2.01743 1.4109,2.47185 0,0 z m 28.66797,0.33984 c -2.60304,5.92352 10.20346,0.49133 0,0 z m -101.833987,0.0937 c -6.269685,2.78189 2.056677,1.9505 0,0 z m -40.175781,0.0156 c -3.507761,1.40322 2.416791,3.18004 0,0 z m 154.498048,0 c -2.41679,3.18004 3.50775,1.40323 0,0 z m -46.91406,0.11523 c -1.74527,1.54194 2.81517,1.20873 0,0 z m -103.642582,0.14258 c -2.929331,1.679 1.851359,2.55349 0,0 z m -32.117187,0.006 c -0.334315,2.34006 3.307843,1.2403 0,0 z m 41.785156,0.375 c -2.596835,1.75439 2.510114,1.54462 0,0 z m 77.378903,0 c -2.60108,1.75158 2.51094,1.54718 0,0 z m 41.15039,0.0898 c -4.23124,1.92703 1.08871,2.24868 0,0 z m -43.6582,0.12891 c -0.74764,1.82534 3.26141,0.98367 0,0 z m 6.86133,0 c -3.68844,1.32636 0.81837,1.94538 0,0 z m 106.38476,0.12109 c -2.46842,1.76227 2.17148,0.81536 0,0 z m -183.603511,0.31446 c -2.599594,1.7543 2.51217,1.54318 0,0 z m 21.529297,0.21874 c -2.042194,1.05885 2.152255,1.40698 0,0 z m -56.644532,0.15235 c -1.1129,2.10518 3.972691,2.0918 0,0 z m 188.480466,0 c -3.97986,1.28971 5.30089,4.6975 0,0 z m -125.724606,0.0723 c -2.839716,1.17438 1.735663,1.56156 0,0 z m 92.294926,0 c -1.74561,1.54293 2.8156,1.21257 0,0 z m 22.72656,0.11524 c -3.66279,3.7716 3.57634,7.04179 0,0 z m 3.73828,0.0801 c -4.06908,-0.0256 2.38072,0.91199 0,0 z m -151.833985,0.28906 c -4.118442,3.93831 0.373969,3.01687 0,0 z m 179.988285,0.36914 c -2.63298,1.74538 2.54567,1.51377 0,0 z m -67.11133,0.13477 c -3.31322,1.38706 3.20264,1.07982 0,0 z m 75.29101,0.4746 c -2.95385,1.32863 2.49411,2.21248 0,0 z m -77.07031,0.0391 c -4.08118,1.97254 1.76407,1.78491 0,0 z m -15.1582,0.002 c -4.73483,2.05817 0.45019,2.45852 0,0 z m 49.39062,0.64063 c -2.63608,1.74082 2.54548,1.51432 0,0 z m 7.22266,0.01 c -2.2156,3.42315 6.88289,0.94784 0,0 z m -29.38477,0.18359 c -3.86144,1.41859 4.44751,3.05115 0,0 z m -108.230465,0.17383 c -2.58122,1.56304 2.404696,1.04705 0,0 z m 99.242185,0 c -2.0385,0.97792 2.2182,1.47769 0,0 z m -91.312498,0.22461 c -2.838806,1.17072 1.730167,1.5614 0,0 z m 83.384768,0 c -1.74551,1.54038 2.81644,1.21149 0,0 z m -130.332033,0.60352 c -0.29167,2.74969 4.287264,1.30321 0,0 z m 206.605473,0 c -4.98315,1.42511 0.44436,2.92265 0,0 z m -215.476567,0.81836 c -2.956497,1.24318 1.912107,2.65344 0,0 z m 147.152347,1.11133 c -2.63432,1.74262 2.54431,1.5178 0,0 z m -34.72461,0.22265 c -5.74899,2.35305 0.94804,3.79133 0,0 z m 61.10742,0.12696 c -3.54947,2.17983 4.34234,0.6015 0,0 z m 46.31055,0.0332 c -0.51675,3.05782 4.31679,1.25937 0,0 z m -101.46094,0.004 c -6.07847,2.87635 2.29339,3.61718 0,0 z m 50.83594,0.11719 c -2.74204,2.00722 4.28902,1.46548 0,0 z M 9.7460938,153.96875 c -3.0501692,2.45633 1.0526312,3.39549 0,0 z m 24.9257812,0.1875 c -6.945551,3.27686 8.530936,-0.0281 0,0 z m 194.568355,0 c -7.45084,1.43348 8.91605,1.54191 0,0 z m -102.32421,0.0644 c -4.17192,2.01997 0.70786,3.62936 0,0 z m 58.40625,0.15235 c -1.74555,1.54035 2.81645,1.21152 0,0 z m 6.13476,0.33398 c -2.59785,1.75616 2.51099,1.54661 0,0 z m -93.033202,0.004 c -2.368822,1.38588 1.444522,1.79108 0,0 z m 61.087892,0.79687 c -3.26805,0.49866 2.6108,0.64972 0,0 z m -1.83594,0.10157 c -1.7699,2.31471 2.91482,3.22283 0,0 z m -138.794921,0.1914 c -5.364034,3.04385 1.088576,2.27922 0.933594,4.0625 1.692907,-1.0954 -0.169336,-3.19115 -0.933594,-4.0625 z m 197.576171,0 c -7.99672,7.88094 8.07477,1.3796 0,0 z M 1.5546875,155.90234 c -2.7184134,2.65564 3.3154205,1.43984 0,0 z m 38.5996095,0 c -4.343518,1.98375 0.756013,3.92797 0,0 z m -8.480469,0.21485 c -2.931625,1.15605 4.58507,1.17314 0,0 z m 192.015622,0.10351 c -1.76375,1.52537 2.85546,1.19232 0,0 z m 17.08594,0.11524 c -1.74552,1.53939 2.81522,1.21068 0,0 z m -133.81836,0.30859 c -3.90204,2.04736 2.94938,4.65515 0,0 z m 118.98047,0.0156 c -4.2843,1.8691 2.55564,2.25785 0,0 z m -157.683594,0.10351 c -2.308183,1.2045 1.423514,1.94102 0,0 z m 106.464844,0.0117 c -4.57701,1.21997 2.73583,3.94055 0,0 z m -75.339844,0.20899 c -2.775533,1.53219 3.866274,1.79082 0,0 z m 65.904294,0 c -3.34252,1.39323 2.29955,1.54748 0,0 z m -46.37695,0.0293 c -1.85394,2.58426 2.87345,1.7241 0,0 z m -82.175781,0.7793 c 1.83369,3.42791 6.065219,1.70875 0,0 z m 191.201171,0 c -4.99808,1.48385 -1.60995,2.96353 0,0 z m -217.808593,0.043 c -3.0153749,2.09984 2.131347,2.70876 0,0 z m 110.792973,0.11133 c -4.58219,1.90048 1.82499,3.78473 0,0 z m 39.67187,0.0293 c -2.81845,5.29952 4.36601,2.4197 0,0 z m -34.99805,0.31446 c -3.36017,1.65379 3.23865,1.33674 0,0 z m 13.48243,0 c -3.3602,1.65377 3.23863,1.33676 0,0 z m 28.29296,0.2207 c -3.59458,2.93527 2.06802,2.92777 0,0 z m -111.597652,0.1582 c -0.508374,3.79043 2.267157,2.89556 0,0 z m 8.759766,0.27149 c -4.679461,3.69944 0.566576,5.57561 0,0 z m 135.609376,0 c -1.72873,2.92704 3.67096,3.48742 0,0 z m -167.458986,0.004 c -3.360188,1.6538 3.238648,1.33677 0,0 z m 199.306646,0 c -3.3602,1.65378 3.23863,1.33678 0,0 z m -36.32227,0.11914 c -2.03885,0.97851 2.21843,1.48222 0,0 z m -122.330079,0.0996 c -3.164201,1.206 2.37088,1.0438 0,0 z m 117.999999,0 c -2.32908,1.29313 2.85374,0.91886 0,0 z m -180.275389,1.74219 c -3.632869,3.34598 1.613029,4.41129 0,0 z m 17.144531,0 c -3.150102,0.78846 2.461432,1.44481 0,0 z m 208.259768,0 c -2.53981,1.44665 3.18263,0.76004 0,0 z m -151.707034,0.12109 c -2.59786,1.75617 2.511007,1.54662 0,0 z m 65.830074,0 c -2.59787,1.75618 2.51103,1.54661 0,0 z m -117.257808,0.0332 c -3.807603,1.91259 1.767445,1.37059 0,0 z m 16.705078,0.0976 c -2.372927,1.39198 1.451662,1.78597 0,0 z m 193.56836,0 c -3.39763,1.55841 2.29457,1.47355 0,0 z m -143.822266,0.40235 c -3.2599,1.25134 2.340996,1.45422 0,0 z m 65.109376,0 c -2.34819,1.4865 3.1612,1.19667 0,0 z m -75.521486,0.12109 c -3.34727,1.39212 2.296281,1.55136 0,0 z m 56.607426,0 c -2.45194,1.69232 3.47152,1.28502 0,0 z m 41.71484,0.33203 c -3.37788,2.2213 3.02873,1.9219 0,0 z m -20.24414,0.12305 c -4.47428,1.72276 3.33068,2.92547 0,0 z m -64.1582,0.0781 c -1.63395,1.59313 3.84614,2.91117 0,0 z m 58.09179,0 c -2.64685,1.41859 2.56709,1.23229 0,0 z m -29.47656,0.22852 c -3.68307,2.40893 1.2814,2.31999 0,0 z m -89.101562,0.004 c -1.272155,2.28945 4.099659,2.67686 0,0 z m 39.689453,0.0293 c -2.968824,1.20679 2.949014,1.50504 0,0 z m 99.685549,0 c -3.10269,1.46868 3.12798,1.22473 0,0 z m -65.72071,0.15039 c -1.89161,1.83521 4.47466,2.905 0,0 z m 72.57618,0.043 c -0.2639,2.1092 3.79864,1.06725 0,0 z m 14.99218,0.23047 c -1.8537,2.58007 2.87388,1.72367 0,0 z m -158.826168,0.0879 c -2.294508,1.24854 1.259269,2.05189 0,0 z m -13.90625,0.008 c -2.636081,1.74081 2.545474,1.51435 0,0 z M 21.125,163.56641 c 0.768621,4.44949 4.554704,2.24612 0,0 z m 222.41211,0 c -4.55262,2.24861 -0.76962,4.44748 0,0 z m -69.36133,0.0742 c -3.89691,2.97802 4.04535,1.79424 0,0 z m -137.966796,0.002 c -5.509626,2.17245 2.812772,2.1015 0,0 z m 24.6875,0 c -2.037651,0.9763 2.217728,1.48055 0,0 z m 138.232426,0 c -2.81278,2.10149 5.50961,2.17245 0,0 z m 28.69921,0.0957 c -1.43368,1.31254 2.18407,1.45029 0,0 z m -174.664058,0.43945 c -3.542203,1.44032 -0.670659,2.81823 0,0 z m 158.333988,0 c 0.55214,2.672 3.62825,1.55321 0,0 z m -48.76563,0.10743 c -2.62967,1.68957 2.64939,2.58472 0,0 z m -6.34961,0.23242 c -4.85306,2.60644 3.24569,0.93568 0,0 z m -8.25976,0.50976 c -2.37003,1.39671 1.45136,1.78252 0,0 z m -89.580081,0.23828 c -2.59685,1.75443 2.510131,1.54461 0,0 z m 35.33789,0.51758 c -2.157021,2.2847 4.876623,1.45812 0,0 z m 47.576171,0 c -4.87883,1.45591 2.15702,2.28643 0,0 z m -76.351561,0.0156 c -1.709621,1.23424 2.855077,2.49583 0,0 z m -54.636719,0.33984 c -2.3061272,1.21103 1.429674,1.9347 0,0 z m 125.08594,0.0801 c -3.77438,0.79089 2.72578,2.30672 0,0 z m -35.26563,0.041 c -2.603858,1.75147 2.51299,1.54577 0,0 z m -17.837888,0.1289 c -3.463715,3.7284 3.769192,2.02261 0,0 z m 99.759768,0 c -3.40473,2.09095 3.04955,3.23001 0,0 z m -142.548831,0.0156 c -4.959379,1.29572 4.157988,2.55533 0,0 z m 185.337891,0 c -3.79941,1.56527 2.3762,2.54612 0,0 z m -111.20508,0.0742 c -2.29451,1.24854 1.25926,2.05188 0,0 z m 115.7793,0.0605 c -1.76438,1.52426 2.8568,1.19197 0,0 z m -17.8086,0.0293 c -2.02144,1.19352 1.6856,2.30295 0,0 z m -39.80468,0.004 c -1.82261,1.36557 3.68856,2.637 0,0 z m -92.474612,0.2207 c -2.597855,1.75616 2.510996,1.54661 0,0 z m 105.689452,0 c -2.59785,1.75616 2.511,1.5466 0,0 z m 51.85742,0.18164 c -2.69412,1.78756 3.46234,0.43439 0,0 z m -206.121091,0.0801 c -2.643227,1.29137 2.182826,1.95848 0,0 z m 202.837891,0 c -2.71343,2.05774 3.22335,1.58542 0,0 z m -100.83008,0.20117 c -4.71913,1.14638 0.31761,4.36115 0,0 z m -95.056639,0.33984 c -3.82592,1.71763 1.468067,1.58747 0,0 z m 159.611329,0 c -1.13735,1.61965 3.2704,1.24956 0,0 z m -17.75781,0.01 c -1.86327,3.67004 5.53424,2.47271 0,0 z m -150.107425,0.18164 c -2.603863,1.75147 2.512989,1.54578 0,0 z m 106.312505,0.0937 c -2.04749,1.05531 2.15389,1.40941 0,0 z m 9.74218,0.17773 c 0.76673,2.16863 3.34206,0.55908 0,0 z m -19.33594,0.006 c -3.83167,1.55785 3.34404,2.10124 0,0 z m -37.851558,0.0371 c -1.335634,1.469 2.092725,1.3448 0,0 z m 12.912108,0 c -2.310392,1.20256 1.42799,1.93896 0,0 z m 61.88477,0 c -1.32982,1.4736 2.09451,1.3405 0,0 z m 12.91406,0 c -2.30864,1.20185 1.42375,1.939 0,0 z m -72.44922,0.11914 c -1.30746,1.95594 2.32103,1.34565 0,0 z m 100.97461,0.21875 c -2.29544,1.2557 1.26415,2.04645 0,0 z m -154.552734,0.75 c -2.596851,1.75442 2.510129,1.5446 0,0 z m 64.166014,0.0176 c -6.11507,-0.78655 -4.2506,8.52132 -0.11001,1.78563 2.17434,-0.48761 3.15845,-1.59124 0.11001,-1.78563 z m 107.60547,0.20313 c -2.99748,1.77069 1.74837,2.06125 0,0 z M 15.171875,169.5293 c -2.040188,0.9776 2.22262,1.47785 0,0 z m 204.992185,0 c -3.47341,1.79713 1.44899,2.09517 0,0 z m -134.896482,0.0117 c -1.433421,1.30965 2.181307,1.45374 0,0 z m -81.5839842,0.11914 c -4.06495593,1.22169 1.9887678,3.3637 0,0 z m 227.9707062,0 c -1.98587,3.1482 3.96304,1.43042 0,0 z m -172.054691,0.043 c -4.988599,1.42818 0.453008,2.91946 0,0 z m 145.462891,0 c -0.28235,2.75292 4.2842,1.29999 0,0 z m -13.11523,0.0449 c -0.91851,2.60042 4.10316,3.00751 0,0 z m -28.59766,0.0937 c -4.22748,2.16342 -0.2932,2.81236 0,0 z m -88.970704,0.002 c -3.257772,1.25296 2.346946,1.44667 0,0 z m 65.738284,0.0781 c -3.35796,3.7691 1.95785,2.83168 0,0 z m 35.86133,0.57421 c -4.21306,1.7757 3.18336,1.38344 0,0 z m 66.68945,0.35157 c -1.51321,0.066 0.81104,1.9649 0,0 z M 19.572266,171.375 c -2.834212,2.75224 3.10081,1.64874 0,0 z m 225.517574,0 c -3.41027,1.65907 2.91898,3.05065 0,0 z m -237.7578088,0.0508 c -0.6524422,2.37919 1.4831589,0.61664 0,0 z m 89.8749998,0.0176 c -1.400811,3.40641 4.267659,1.17074 0,0 z m 70.248049,0 c -4.12963,1.89916 1.20301,2.76758 0,0 z m -81.785158,0.11523 c -2.837101,0.30197 1.158597,4.49266 0,0 z m 63.998048,0 c -1.53467,4.03263 3.0848,0.69637 0,0 z m -99.281251,0.15625 c -1.744991,1.5426 2.819742,1.21345 0,0 z m 134.562501,0 c -2.83533,1.17575 1.72913,1.56165 0,0 z M 61.037109,172.25 c -2.83712,1.16823 1.729788,1.56304 0,0 z m 142.589841,0 c -1.98965,3.23252 2.34147,3.58433 0,0 z m -171.154294,0.11328 c -2.541027,1.50853 3.152606,0.67042 0,0 z m 10.595703,0.0957 c -2.416517,1.57717 2.454731,1.59331 0,0 z m -42.15039025,0.20899 c -3.75833815,1.6657 2.86005625,1.36944 0,0 z m 197.78125125,0 c -3.79902,2.48115 3.96621,2.31094 0,0 z m -109.050782,0.13086 c -3.89715,2.63244 3.766644,2.31721 0,0 z m 3.488281,0 c -2.837127,3.05664 2.620088,1.27366 0,0 z m 49.064451,0 c -2.54948,1.5903 2.6298,2.64604 0,0 z m 3.48828,0 c -3.90142,2.62963 3.76748,2.31978 0,0 z m 71.10352,0.0449 c -2.31371,2.05992 3.1024,1.67071 0,0 z m -101.38672,0.17383 c -3.34288,1.3966 2.29938,1.54957 0,0 z m -92.876953,0.43554 c -3.897159,2.63243 3.766647,2.31722 0,0 z m 190.279293,0 c -3.89714,2.63245 3.76666,2.31719 0,0 z m -72.21093,0.17188 c -0.72495,3.80534 6.60949,8.73364 0,0 z m -71.091801,0.14062 c -2.597854,1.75617 2.511006,1.54661 0,0 z m 117.216801,0.16797 c -2.97277,1.20273 2.9441,1.50878 0,0 z m -32.9961,0.0586 c -1.75111,1.53892 2.81712,1.21159 0,0 z m -110.402341,0.3164 c -2.372506,1.42287 4.046083,1.09656 0,0 z m 178.013671,0 c -4.30076,1.01385 2.45225,1.44973 0,0 z m -70.42969,0.0176 c -3.55609,3.37882 2.33407,3.18355 0,0 z m -96.619138,0.36328 c -4.618647,1.81791 2.614399,5.85624 0,0 z m 156.083988,0 c -2.66226,5.6926 4.57589,2.06028 0,0 z m -87.42383,0.38477 c -1.5046,1.71598 3.26162,1.14166 0,0 z m 80.0332,0 c -2.04671,1.05398 2.1532,1.41081 0,0 z m -108.207029,0.46094 c -4.566396,3.20232 2.653505,2.86652 0,0 z m 75.111329,0 c -2.27727,2.79425 3.94368,2.5825 0,0 z m 31.95312,0.0781 c -2.70471,3.28514 2.26656,2.55022 0,0 z m -178.716793,0.0215 c -2.596453,1.3564 3.626356,1.53177 0,0 z m 158.984373,0 c -3.36488,1.6493 3.23964,1.33555 0,0 z m -17.85351,0.2832 c -5.04011,1.17171 2.32001,1.27676 0,0 z m 75.90039,0.15039 c -2.59785,1.75616 2.51099,1.54661 0,0 z m -164.441409,0.21875 c -3.36019,1.65379 3.238652,1.33675 0,0 z m 12.515625,0.0312 c -2.893267,1.71858 1.834474,2.574 0,0 z m 58.880864,0 c -1.85374,2.58007 2.87387,1.72368 0,0 z m 88.26367,0.14062 c -6.06307,2.10098 2.85286,2.58147 0,0 z M 0,176.46875 c -0.78332471,3.53643 4.9125871,1.20185 0,0 z m 125.19727,0.16406 c -2.63185,2.38355 2.5585,2.46888 0,0 z m 99.36328,0.0723 c -5.43345,3.39622 5.14834,2.82443 0,0 z m -184.494144,0.002 c -3.055737,4.72309 5.043101,1.18689 0,0 z m 156.410154,0.57031 c -2.63184,2.38359 2.55853,2.46884 0,0 z m -144.332029,0.19727 c -2.018269,6.67249 4.940639,4.56587 0,0 z m -43.9179685,0.0742 c -3.1942091,2.48758 2.5703875,1.31499 0,0 z m 106.7812475,0.0469 c -2.34234,1.49019 3.16373,1.19333 0,0 z m 60.65039,0 c -3.12744,1.3907 3.34834,2.04527 0,0 z m -164.230466,0.13868 c -7.3276314,0.91827 2.419423,1.13383 0,0 z M 5.5,178.0293 c -2.8367678,3.05629 2.6222871,1.27303 0,0 z m 38.953125,0 c -3.360196,1.65378 3.23865,1.33676 0,0 z m 146.431645,0 c -3.3602,1.65377 3.23864,1.33676 0,0 z m 38.95117,0 c -2.5495,1.59897 2.63353,2.63735 0,0 z m 7.27539,0.0293 c -3.82592,1.71762 1.46805,1.58748 0,0 z m -180.501955,0.0977 c -1.806352,2.35429 2.899079,3.2642 0,0 z m 151.445315,0 c -2.8753,2.5385 1.73192,3.0173 0,0 z m -23.66992,0.0117 c -0.55385,2.73011 4.09454,2.82929 0,0 z m 4.2832,0.40039 c -2.37002,1.39667 1.45135,1.78253 0,0 z m 51.93945,0.33984 c -1.0492,2.10411 3.51786,3.39768 0,0 z m -162.718748,0.63086 c -5.607837,1.72732 0.651604,4.84529 0,0 z m 108.884768,0 c -0.85765,4.67731 5.72525,1.89662 0,0 z m 18.86914,0.0176 c -2.59785,1.75616 2.511,1.5466 0,0 z m -124.000002,0.20313 c -2.068901,1.04185 2.177635,1.37964 0,0 z m -58.314453,0.11132 c -2.597853,1.75618 2.511005,1.54661 0,0 z m 214.988285,0.77539 c -3.34661,1.39395 2.29978,1.54741 0,0 z m -79.25977,0.21875 c -1.97709,2.12485 4.72391,1.50748 0.79883,0.0957 l -0.79883,-0.0957 z m -54.04883,0.74805 c -2.30575,1.2085 1.42665,1.93848 0,0 z m -53.306638,0.25195 c -2.893259,1.71861 1.834469,2.57398 0,0 z m 18.333984,0.0879 c -2.959171,1.25979 1.912713,2.71658 0,0 z m 124.591794,0 c -2.0465,3.46698 3.01194,0.90549 0,0 z m -92.67383,0.38672 c -2.367826,1.39286 1.45092,1.78499 0,0 z m 23.48829,0.32227 c -0.58328,2.25949 3.40155,1.56352 0,0 z m -82.271488,0.14062 c -5.122421,2.57016 2.828278,1.71948 0,0 z m 178.322268,0 c -2.29492,2.07218 4.25723,1.85414 0,0 z m -105.81055,0.36915 c -1.85382,2.58222 2.87375,1.72207 0,0 z m -102.818359,0.38476 c -2.529337,3.49928 5.669379,6.87819 0,0 z m 88.955079,0.89258 c -0.74597,1.82266 3.26061,0.98535 0,0 z m 61.02539,0 c -3.68801,1.32712 0.81659,1.94432 0,0 z m 39.24219,0.006 c -1.74599,1.54334 2.82016,1.20748 0,0 z m -134.759768,0.0742 c -4.33027,1.71276 0.04679,2.8479 0,0 z m 130.011718,0 c -0.11782,2.55035 3.96752,1.45736 0,0 z m -80.24609,0.041 c -3.76055,2.37149 6.59162,0.54378 0,0 z M 250,184.83008 c -0.24212,0.42897 0.22683,1.50509 0,0 z m -247.078125,0.0664 c -3.75164027,1.73373 3.5151457,1.4612 0,0 z m 229.494145,0 c -3.51724,1.46001 3.74941,1.73544 0,0 z m -207.300786,0.0215 c -2.56314,1.63204 1.372019,1.77713 0,0 z m 159.720706,0.0293 c -1.43137,2.07871 6.37692,3.35079 0,0 z m -21.20899,0.14648 c -2.72754,0.56921 -2.99476,5.13729 0,0 z m -120.042966,0.23242 c -2.818245,4.04352 5.783245,0.72852 0,0 z m 148.169926,0 c -4.11723,2.83829 3.15069,2.30983 0,0 z M 151.25,185.56445 c -1.24607,1.79642 2.3098,1.25913 0,0 z m -63.970703,0.0352 c -1.843639,2.13215 2.248933,2.03708 0,0 z m -16.361328,0.0625 c -2.628149,2.3843 2.557813,2.46304 0,0 z m 157.603511,0 c -2.63347,1.73726 2.53973,1.51774 0,0 z m -179.722652,0.0957 c -3.313586,1.3902 3.202993,1.0825 0,0 z m 167.066402,0 c -3.31866,1.38883 3.2042,1.08391 0,0 z m 3.17383,0.0586 c -1.08633,2.41873 2.81877,0.87637 0,0 z m -49.5332,0.11523 c -0.0967,4.12281 3.57286,1.58681 0,0 z M 8.4746094,186.10156 c -1.7452079,1.54146 2.8142826,1.21489 0,0 z m 218.3886706,0 c -2.83532,1.17573 1.72913,1.56165 0,0 z M 36.056641,186.75 c -2.038856,0.97848 2.218434,1.48224 0,0 z m -4.730469,0.0449 c -8.932032,0.56593 2.466777,4.57542 1.399283,1.10812 l -0.594596,-0.75656 -0.804687,-0.35156 z m 202.009768,0 c -6.99374,4.9515 11.02243,0.94924 0,0 z m -101.07227,0.0508 c -7.37363,4.55662 2.58453,3.59356 0,0 z m 2.19922,0.13086 c -1.74526,1.54193 2.81517,1.20873 0,0 z m -124.298828,0.14063 c -3.2545976,0.49904 2.605338,0.6497 0,0 z m 228.759768,0.0684 c -2.54948,1.59031 2.6298,2.64602 0,0 z m -196.828127,0.0371 c -3.953237,1.7741 3.771443,2.56355 0,0 z m 180.470707,0 c -5.0212,3.32429 4.38907,1.20009 0,0 z m -142.541019,0.21093 c -4.012666,1.70023 1.477877,1.6403 0,0 z m -65.103516,0.63086 c -1.746237,1.54178 2.82144,1.21027 0,0 z m 205.494145,0 c -2.84263,1.16564 1.72424,1.56572 0,0 z m -117.375,0.10157 c -1.212,2.84144 3.53425,1.57762 0,0 z m 76.18359,0.0742 c -4.44008,1.55127 2.47129,1.36681 0,0 z m -112.69336,0.13282 c -2.042203,1.05886 2.152263,1.40695 0,0 z m 131.60156,0 c -2.65171,1.41385 2.5681,1.23805 0,0 z m -124.363279,0.006 c -1.745271,1.54192 2.815173,1.20874 0,0 z m 9.181641,0.4082 c -2.960254,1.77226 2.184521,1.56933 0,0 z m 51.964848,0.0195 c -2.3359,1.43865 3.1392,1.24116 0,0 z m -94.82227,0.2207 c -2.594363,2.39918 2.521762,2.51455 0,0 z m 141.88086,0 c -1.33546,1.46989 2.09152,1.34524 0,0 z m 42.59375,0 c -2.59673,2.40344 2.5272,2.5105 0,0 z m -20.63672,0.4043 c -2.63186,2.38358 2.55853,2.46885 0,0 z m -61.2793,0.0879 c 1.25507,3.18815 6.57177,1.71842 0,0 z m -107.072262,0.16211 c -2.599599,1.75429 2.512168,1.54319 0,0 z m 193.501952,0 c -2.60225,1.75791 2.51798,1.53972 0,0 z m -40.93164,0.43359 c -2.04219,1.05887 2.15226,1.40697 0,0 z m 19.9043,0 c -4.6121,1.13288 2.07358,1.60341 0,0 z m -156.833987,0.26563 c -1.501587,3.90295 2.31759,2.44332 0,0 z m 162.220707,0 c -2.32531,2.3494 1.52187,4.01114 0,0 z m -163.486332,0.0742 c -2.611363,1.34938 3.648754,1.54562 0,0 z m 50.236332,0 c -2.757332,1.54549 3.84114,1.77856 0,0 z m 8.06054,0 c -1.30743,1.95594 2.32102,1.34563 0,0 z m 18.83399,0 c -2.29726,1.25166 1.26477,2.04913 0,0 z m 8.06054,0 c -3.34621,1.39503 2.30067,1.55047 0,0 z m 50.23633,0 c -3.16723,1.13457 2.21095,1.49039 0,0 z M 85.625,190.76953 c -2.596838,1.75441 2.510123,1.5446 0,0 z m 89.6543,0.26953 c -4.12075,3.75682 7.01367,0.57396 0,0 z m -43.18555,0.0586 c -1.28022,3.09307 5.9974,1.4478 0,0 z m -30.38477,0.97851 c -3.367751,1.46316 4.15041,1.22134 0,0 z m 45.92969,0.0195 c -8.78012,3.38503 -1.65868,3.47644 0.19336,0.0703 l -0.19336,-0.0703 z m 49.6211,0.0352 c -9.33319,0.62377 5.71434,2.50699 1.99705,0.07 l -1.99705,-0.07 z m -48.95899,0.24609 c 0.12626,2.88181 4.26141,2.21533 0,0 z m 15.5625,0.0664 c 1.03758,3.70867 3.27427,1.53466 0,0 z m -33.74609,0.28711 c -2.59785,1.75616 2.511,1.54661 0,0 z m -8.89844,0.0156 c -3.19426,1.37225 -0.23345,2.56427 0,0 z m -43.814453,0.0742 c -4.364201,1.7808 2.937841,2.36973 0,0 z m 114.140623,0.86914 c -4.58367,0.70422 3.55754,2.11 0,0 z m -83.4707,0.0234 c -1.96922,1.28644 5.44475,1.03427 0,0 z m 48.51562,0 c -6.17151,0.85612 1.99546,1.73313 0,0 z m 13.58789,0.23242 c -2.58068,1.56253 2.40122,1.04817 0,0 z m 46.4961,0.25781 c -1.37055,2.8195 5.35679,2.18429 0,0 z m -188.855471,0.4004 c -1.745577,1.54292 2.815595,1.21254 0,0 z m 179.701171,0 c -2.84353,1.16925 1.72977,1.5659 0,0 z m -67.76367,0.11718 c -3.00391,1.93689 4.84585,1.45591 0,0 z m -118.263672,0.18946 c -4.359313,1.4909 -0.776555,3.23245 0,0 z m 69.408203,0.0156 c -2.383862,1.48164 1.559262,2.51235 0,0 z M 0.65234375,195.0332 c -1.64991901,2.362 4.85208745,1.85054 0,0 z m 234.03320625,0 c -7.96892,4.29836 2.54592,1.12638 0,0 z m -26.54493,0.31446 c -2.59961,1.75431 2.5122,1.54317 0,0 z m -157.722651,0.35937 c -4.638888,2.77327 8.551585,2.0068 0,0 z m 134.501951,0 c -8.81665,2.22711 6.02856,2.86515 0,0 z M 67.498047,196.2207 c -3.360191,1.6538 3.238654,1.33677 0,0 z m 129.666013,0 c -3.36017,1.65381 3.23865,1.33676 0,0 z m 27.14453,0.40235 c -2.56876,1.63292 1.37907,1.77142 0,0 z m -114.72656,0.54687 c -0.30606,3.19236 3.8918,2.6359 0,0 z m -29.191405,0.002 c -4.02795,3.53405 4.263463,2.29067 0,0 z m 74.558595,0 c -4.32439,0.66288 3.38193,4.03417 0,0 z m -42.16992,0.31445 c 0.76052,2.16027 3.34361,0.5707 0,0 z m 9.70508,0.21875 c -1.70347,2.03216 3.70309,0.36017 0,0 z m 19.69335,0 c -4.46764,0.6957 2.1517,1.96409 0,0 z m -47.275386,0.47656 c -2.597863,1.75617 2.511003,1.54661 0,0 z m 4.476562,0 c -2.768488,1.53732 3.856074,1.79006 0,0 z m 65.904294,0 c -2.29988,1.96745 3.95784,6.52616 0.52539,1 0.15639,-0.12343 0.0957,-1.05337 -0.52539,-1 z m 4.47657,0 c -2.59788,1.75615 2.511,1.54662 0,0 z m -77.628911,0.12109 c -1.307501,1.95626 2.321833,1.34003 0,0 z m 51.076171,0 c -2.29447,1.24859 1.25943,2.04796 0,0 z m -75.624999,0.15625 c -3.04766,1.5204 2.919572,1.30255 0,0 z m -24.771484,0.0469 c -1.377668,2.19789 1.697337,4.15259 0,0 z m 144.777343,0.0156 c -2.59785,1.75617 2.511,1.54662 0,0 z m -73.78906,0.53516 c -5.63596,1.67025 2.3691,2.07357 0,0 z m 7.74023,0 c -2.10086,1.8307 4.27089,2.02016 0.45899,0.0156 l -0.45899,-0.0156 z m -52.009763,0.125 c -2.84473,1.16817 1.729869,1.56307 0,0 z m -17.732422,0.30859 c -3.38325,1.55529 1.913679,0.84214 0,0 z m 11.568359,0 c -2.59786,1.75617 2.511007,1.54662 0,0 z m 137.931646,0 c -2.59788,1.75615 2.511,1.54664 0,0 z m 11.56835,0 c -2.16554,0.9962 3.48884,1.39279 0,0 z m 19.3125,0.32227 c -0.42967,4.62295 4.18944,0.40216 0,0 z M 1.6308594,200.26367 c -2.03936931,0.98133 2.2222573,1.4797 0,0 z m 14.0761716,0.22071 c -2.535207,1.5104 3.151176,0.66811 0,0 z m 125.146489,0.008 c -1.43343,1.31082 2.17973,1.45203 0,0 z M 68.75,201.45117 c -3.766453,1.60479 4.794906,1.69079 0,0 z m 127.16211,0 c -4.39752,1.55154 3.30505,1.49414 0,0 z m -83.53711,0.0566 c -4.26867,4.55959 6.92326,3.29413 0,0 z m -102.7050781,0.0645 c -4.7600915,2.23506 4.3995361,3.2158 0,0 z m 215.9960981,0 c -3.36594,1.95894 4.49498,1.98914 0,0 z m -1.97461,0.31445 c -1.60413,2.40155 3.10602,2.57901 0,0 z m -108.29297,0.47851 c -1.84556,2.13086 2.25326,2.03267 0,0 z m 11.49414,0.17579 c -2.60223,1.75789 2.51795,1.53973 0,0 z m -3.98242,0.0312 c -0.56922,3.75382 4.89179,1.81894 0,0 z m 25.51172,0.2207 c -2.72689,1.12246 1.7914,2.20984 0,0 z m -84.566411,0.0879 c -3.360651,1.65257 3.242763,1.3321 0,0 z m 107.625001,0 c -2.95062,2.41187 5.00044,0.60883 0,0 z m -100.035158,0.13476 c -1.879737,3.00143 2.07844,1.35117 0,0 z m 121.771488,0 c -1.90922,1.50753 1.60125,2.28092 0,0 z m -1.60742,0.29297 c -2.38649,1.47734 1.55589,2.51613 0,0 z m -170.783208,0.31055 c -2.63348,1.73724 2.539716,1.51777 0,0 z m 35.697266,0.0156 c -2.972065,1.88839 1.680115,2.05907 0,0 z m 151.617182,0 c -1.73833,2.08868 3.00448,1.85066 0,0 z m -30.6289,0.40429 c -4.79719,3.13437 4.6746,2.80837 0,0 z m -57.45313,0.0996 c -3.66531,2.92203 3.56288,2.40366 0,0 z m -59.220699,0.11328 c -5.644481,2.45565 3.756123,1.89016 0,0 z m 142.986329,0 c -3.75611,1.88998 5.64505,2.45606 0,0 z M 83.824219,204.8418 c -3.260986,1.25168 2.343726,1.4544 0,0 z m 67.689451,0 c -2.34799,1.48607 3.16198,1.19725 0,0 z m -151.35156062,0.0273 c -0.98259324,2.38922 3.14804252,0.59638 0,0 z m 235.01367062,0 c -3.82714,1.71971 1.46826,1.59016 0,0 z m -184.921874,0.0391 c -2.633486,1.73726 2.539723,1.51777 0,0 z m 139.357424,0.0977 c -3.40518,1.63094 3.27968,1.31182 0,0 z m 2.78515,0.20117 c -3.25785,0.5017 2.60837,0.65065 0,0 z M 95.009766,205.375 c -4.75201,4.60971 2.248841,4.22355 0,0 z m 74.642574,0 c -2.24883,4.22356 4.75201,4.60968 0,0 z m -12.34179,0.27539 c -3.30346,2.3677 2.26086,2.18612 0,0 z m -116.613284,0.14844 c -2.929553,1.68288 1.851438,2.55426 0,0 z m 27.291015,0.35156 c -2.432583,1.30631 2.346204,1.10508 0,0 z m 20.917969,0 c -1.381148,1.60094 2.35908,0.94272 0,0 z m 57.52344,0 c -2.29007,1.10289 1.37628,1.48154 0,0 z m 20.91992,0 c -2.43411,1.30635 2.3464,1.10525 0,0 z m -135.605469,0.0801 c -4.774695,0.2829 2.905141,1.67524 0,0 z m 171.847659,0 c -2.88596,1.66675 4.79608,0.30616 0,0 z m -103.36328,0.0644 c -0.765752,2.02382 3.42579,1.63655 0,0 z m -81.207036,0.58399 c -5.96684,2.18172 2.661821,2.27425 0,0 z m 26.46875,0.0137 c -4.833422,4.69128 2.76985,3.2891 0,0 z m -6.876953,0.0156 c -1.74557,1.54294 2.815581,1.21255 0,0 z m 187.437499,0 c -2.84257,1.17077 1.73084,1.56544 0,0 z m -108.375,0.0312 c -3.51613,4.54398 3.20546,4.17233 0,0 z m -92.072264,0.0449 c -5.279584,3.13256 4.401842,3.24756 0,0 z m 52.154296,0.5039 c -2.372921,1.39197 1.451662,1.78595 0,0 z m -2.58789,0.0957 c -3.948958,2.61268 3.813815,2.27539 0,0 z m 30.488278,0.0937 c -4.14364,2.34232 5.23706,1.61236 0,0 z m 47.49219,0.89844 c -3.5301,2.14733 0.59236,3.78057 0,0 z m -23.72851,0.0684 c -2.53982,1.44665 3.18261,0.76005 0,0 z m 5.81835,0 c -3.15008,0.78849 2.46144,1.4448 0,0 z m 8.56641,0.13281 c -2.37291,1.39196 1.45165,1.78598 0,0 z m 20.23438,0 c -2.06902,1.04018 2.17436,1.38085 0,0 z m -110.992192,0.52149 c -2.64824,1.41755 2.570863,1.23676 0,0 z m 9.386719,0 c -3.211269,1.33294 2.287611,1.34338 0,0 z m 139.791013,0 c -2.33527,1.43698 3.13535,1.24282 0,0 z m 9.38672,0 c -2.04316,1.06197 2.15604,1.40658 0,0 z M 7.7851562,209.42188 c -2.3729172,1.39195 1.4516565,1.78597 0,0 z M 187.2793,209.4375 c -4.65386,3.33818 2.11241,3.54833 0,0 z m 26.13476,0.0449 c -1.69362,2.12373 2.208,2.56595 0,0 z m -23.47656,0.0371 c -2.63609,1.7408 2.54548,1.51434 0,0 z m -43.29492,0.11914 c -3.36519,1.65234 3.23994,1.33826 0,0 z m -34.27149,0.31445 c -2.64685,1.41859 2.56709,1.23229 0,0 z m -34.011715,1.57032 c -3.102075,1.46646 3.123267,1.22221 0,0 z m 1.939453,0.30273 c -1.745517,1.54038 2.816445,1.21149 0,0 z m -33.892578,0.17578 c -3.815061,1.91286 1.766654,1.37201 0,0 z m 112.79492,0.0957 c -2.62721,2.38641 2.55705,2.46624 0,0 z m -124.23242,0.0254 c -1.502773,3.07804 3.030646,3.50007 0,0 z m 207.68555,0.19726 c -1.76332,1.5214 2.85049,1.19552 0,0 z m -132.25,0.0293 c -2.02146,1.1935 1.68558,2.30297 0,0 z m 77.93359,0.41992 c -4.50945,1.93202 1.54609,8.92903 0.21875,1.26367 1.08675,0.0423 0.81181,-1.59609 -0.21875,-1.26367 z m -40.57031,0.52149 c -3.79996,2.16304 3.6874,1.69601 0,0 z m 81.11133,0.10937 c -1.70348,2.03214 3.70304,0.3602 0,0 z m -97.53907,0.52734 c -2.43846,0.7625 2.86479,0.30066 0,0 z m 1.98243,0 c -3.25098,0.50412 2.60956,0.65056 0,0 z m 26.42968,0.008 c -1.24718,1.79677 2.3088,1.25869 0,0 z m 43.95703,0.93554 c -2.60111,1.75162 2.51098,1.54715 0,0 z m -162.900386,0.35352 c -2.560906,1.63573 1.377687,1.77372 0,0 z m 15.08789,0.0117 c -2.438243,0.76173 2.864292,0.30006 0,0 z m 152.869136,0 c -3.25937,0.50284 2.6146,0.64948 0,0 z m -40.33007,0.84961 c -1.43855,1.35603 2.57258,2.06433 0,0 z m -117.802738,0.46679 c -4.733005,5.70298 3.866653,0.85702 0,0 z m 21.882813,0.0508 c -3.657177,0.89374 1.556512,2.90473 0,0 z m 119.630855,0 c -1.649,2.83114 3.68899,0.9705 0,0 z m 21.22266,0.0156 c -0.84389,3.62256 4.50821,2.27961 0,0 z m 33.49609,0.0801 c -2.27882,1.80301 3.76268,2.37772 0,0 z m -139.40234,0.0156 c -2.96671,1.88609 1.67897,2.05605 0,0 z m 49.73633,0 c -1.73746,2.08609 3.00363,1.84808 0,0 z m 19.66992,0.11719 c -3.70795,2.6815 6.28649,2.4015 0,0 z m -15.95312,0.0312 c -2.09177,3.31584 2.23824,0.81122 0,0 z m 3.7246,0.32422 c -2.00474,3.12251 3.91388,3.25853 0,0 z m -52.58593,0.16602 c -1.55328,1.96329 2.55161,3.62286 0,0 z m 40.55273,0 c -2.45095,2.69033 1.50301,2.82521 0,0 z m -8.55078,0.45117 c -1.24608,1.79642 2.3098,1.25912 0,0 z m -7.74219,0.0977 c -2.63346,1.73727 2.53972,1.51775 0,0 z m -31.03515,0.55274 c -2.59684,1.7544 2.51011,1.54461 0,0 z m 54.10547,0 c -2.60112,1.75158 2.51095,1.54719 0,0 z m -84.250004,0.91406 c -3.102672,1.4687 3.127993,1.2247 0,0 z m 114.392574,0 c -2.97426,1.20434 2.9502,1.50698 0,0 z m -147.441402,0.39258 c -2.648729,1.42163 2.575638,1.23175 0,0 z m 85.238282,0 c -3.34483,2.02116 1.41026,2.47122 0,0 z m 10.01367,0 c -1.65769,1.30993 2.73753,2.84192 0.55978,0.30497 l -0.55978,-0.30497 z m 85.23828,0 c -2.04271,1.05964 2.1517,1.40857 0,0 z m -193.249998,0.62305 c -2.63607,1.74078 2.545462,1.51435 0,0 z m 18.564453,0.0312 c -4.873428,1.35003 1.853837,4.42032 0,0 z m 168.882815,0 c -2.60214,1.75332 2.51183,1.54919 0,0 z m -108.54102,0.0644 c -2.37175,1.39388 1.45121,1.78875 0,0 z m -56.054686,0.27539 c -2.585391,1.55981 2.400097,1.05166 0,0 z m 119.482426,0.11719 c -4.56522,4.66155 6.03081,4.54371 0,0 z m -32.10547,0.15625 c -3.26421,0.8305 2.45596,1.25229 0,0 z m -27.25391,0.20508 c -2.80407,0.19893 -1.51124,2.8782 0,0 z m 5.09375,0.49023 c -1.50451,1.71482 3.26193,1.14274 0,0 z m 29.87305,0 c -3.20273,1.32326 1.33143,1.60271 0,0 z m 32.86133,0.0469 c -2.63607,1.74078 2.54544,1.51438 0,0 z m 53.62304,0 c -2.63606,1.74082 2.54547,1.51434 0,0 z m -96.95312,0.66407 c -3.02239,1.27081 2.00995,2.67295 0,0 z m 28.68164,0.008 c -4.27217,1.73193 -0.33903,3.27915 0,0 z m -101.177736,0.57812 c -2.892837,0.75107 1.016921,2.41464 0,0 z m -3.945312,0.66407 c -1.357212,3.28262 4.551716,5.59077 1.531409,1.4378 0.24992,-0.87384 -0.765893,-1.54295 -1.531409,-1.4378 z m 28.779297,0 c -2.305751,1.20847 1.426632,1.93849 0,0 z m 86.388671,0 c -1.33226,1.47759 2.09485,1.34268 0,0 z m 28.7793,0 c -4.77297,1.64942 3.6083,3.93318 0,0 z m -156.078128,0.22656 c -1.745268,1.54192 2.815175,1.20874 0,0 z m 168.210938,0 c -2.84208,1.16718 1.73056,1.56423 0,0 z m -141.078125,0.33984 c -1.485128,2.22917 2.509664,2.82355 0,0 z m 106.708985,0.42774 c -3.67449,1.33623 2.66868,1.51432 0,0 z m -98.712891,0.31445 c -2.64715,1.41467 2.568326,1.23712 0,0 z m 59.220701,0 c -2.77689,5.81153 3.17379,10.31891 0,0 z m 85.86719,0 c -1.60327,1.61933 3.52053,1.22883 0,0 z M 67.066406,225.125 c -3.883932,2.41847 2.022113,2.73125 0,0 z m 128.728514,0.41797 c -2.5649,1.63517 1.37809,1.76952 0,0 z M 30.345703,226.1875 c -2.564982,1.63521 1.378126,1.7695 0,0 z m 202.751957,0.0977 c -2.63188,1.74359 2.5447,1.51179 0,0 z m -121.42969,0.0176 c -2.59686,1.75443 2.51013,1.54461 0,0 z m 41.32617,0 c -2.59949,1.75803 2.51591,1.54117 0,0 z m 36.92188,0.56446 c -1.74508,1.54305 2.82062,1.20731 0,0 z m -110.767582,0.0625 c -3.670312,2.33229 2.799387,1.77629 0,0 z m -62.208985,0.0273 c -2.599576,1.75428 2.512152,1.5432 0,0 z m 230.783207,0 c -2.60224,1.75786 2.51794,1.53976 0,0 z m -166.111332,0.87891 c -2.837119,1.16822 1.729786,1.56304 0,0 z m 101.439452,0 c -1.74527,1.54192 2.81517,1.20874 0,0 z m -56.07617,0.11328 c -4.19288,1.44643 4.39256,2.05914 0,0 z m -44.062501,0.17187 c -2.444363,2.54147 3.60409,1.6134 0,0 z M 59.4375,228.26367 c -2.597852,1.75617 2.511003,1.54662 0,0 z m 145.78711,0 c -2.59785,1.75616 2.511,1.54662 0,0 z m -152.513672,0.16406 c -0.250842,3.50026 4.446171,2.85478 0,0 z m -32.357422,0.0586 c -2.966725,1.88608 1.678991,2.05605 0,0 z m 223.955074,0 c -1.73747,2.08609 3.00364,1.84807 0,0 z M 9.6191406,228.60352 c -2.0376485,0.9763 2.2176934,1.48047 0,0 z m 55.0371094,0.31445 c -2.602117,1.75334 2.511822,1.54919 0,0 z m 135.35156,0 c -2.6021,1.75335 2.51182,1.54918 0,0 z M 0.59179688,229.25781 c -2.32867768,1.41001 2.14569832,0.8217 0,0 z m 42.10351512,0.1543 c -1.247187,1.79676 2.308793,1.2587 0,0 z m 36.125,0.16016 c -2.309426,1.20474 1.427924,1.93676 0,0 z m 107.021488,0 c -1.33035,1.47319 2.09386,1.34219 0,0 z m -94.740238,0.0156 c 0.372048,5.21228 3.446178,2.72179 0,0 z m -47.4375,0.0527 c -0.828498,2.56508 2.866835,1.43095 0,0 z m 91.601558,1.06055 c -2.06412,1.04593 2.17706,1.37654 0,0 z m -73.79687,0.17774 c -4.09495,2.96089 2.511409,2.82487 0,0 z m 141.72461,0 c -2.46677,2.52574 3.79457,2.96568 0,0 z m -18.51367,0.13281 c -5.82461,3.92858 7.06768,0.97811 0.45703,0.0586 l -0.45703,-0.0586 z m -88.818362,0.25781 c -3.569406,6.93662 2.476693,5.7811 0,0 z m -25.384766,0.30664 c -0.829147,2.56528 2.867576,1.42583 0,0 z m 11.492188,0.47461 c -1.694775,2.12775 2.213472,2.56202 0,0 z m -36.587891,0.13672 c -6.269764,2.78038 2.058101,1.95369 0,0 z m 173.902341,0 c -1.44595,2.08843 5.0901,2.09279 0,0 z m -214.0781219,0.0156 c -3.5077559,1.40324 2.4167875,3.18005 0,0 z m 13.6093749,0.63868 c -2.597868,1.75616 2.51101,1.5466 0,0 z m 149.656247,0 c -2.59786,1.75615 2.511,1.5466 0,0 z m 77.37696,0 c -2.59789,1.75614 2.51101,1.54661 0,0 z m -177.798832,0.13672 c -1.763147,2.45402 2.810566,1.84398 0,0 z m 138.882812,0.20312 c -2.46842,1.76226 2.17146,0.81537 0,0 z m -183.603515,0.31445 c -2.59684,1.75443 2.510125,1.54459 0,0 z m 218.005855,0 c -2.59686,1.75443 2.51015,1.54459 0,0 z m -82.0625,0.26758 c -6.04221,0.153 1.23963,7.93278 -0.51171,1.45117 1.5264,0.0223 4.75343,0.0256 0.51171,-1.45117 z m 17.42188,0.10352 c -3.63478,1.56566 0.57325,2.62393 0,0 z m -31.91602,0.0586 c -0.86456,2.82744 3.22713,1.86917 0,0 z m -82.974606,0.0957 c -3.397808,1.56108 2.295145,1.47627 0,0 z m 58.162106,0 c -3.9959,2.45373 1.70315,1.69088 0,0 z m 46.17578,0.86719 c -1.75812,1.52584 2.85356,1.19141 0,0 z m 20.76563,0.002 c -1.03091,1.96358 1.20774,2.10223 0,0 z m -161.035156,0.20313 c -2.180772,2.48945 4.449147,1.43632 0,0 z m 212.919926,0 c -4.09161,1.86901 1.51587,1.93894 0,0 z m -32.72852,0.30859 c -2.95506,1.32618 2.49407,2.21457 0,0 z M 8.3242188,235.65625 c -4.9613025,6.84418 1.3384963,2.15774 0,0 z m 61.9785152,0.30078 c -2.367809,1.39276 1.450878,1.78506 0,0 z m 84.974606,0 c -2.63187,1.74363 2.54473,1.51175 0,0 z m -55.814449,0.25586 c -3.027847,1.27049 2.511189,2.24666 0,0 z m -66.63086,0.23828 c -2.58028,1.55931 2.399646,1.05169 0,0 z m 216.654299,0.15039 c -2.36883,1.38588 1.44452,1.79108 0,0 z m -125.33985,0.0742 c -1.74558,1.54296 2.81561,1.21252 0,0 z m -22.53125,0.57031 c -1.48741,1.56312 2.32896,1.44035 0,0 z m -19.103511,0.16016 c -2.226738,1.84652 2.735595,1.41174 0,0 z m 15.171875,0.44141 c -1.404905,2.43568 3.525206,2.92775 0,0 z m -19.205078,0.043 c -2.101813,0.66502 1.339088,0.91318 0,0 z m 42.136714,0.19141 c -1.07732,2.57391 3.64811,2.43078 0,0 z m 50.00196,0.35742 c -2.36782,1.39276 1.45087,1.78509 0,0 z m 18.63867,0 c -2.56875,1.63291 1.37903,1.77145 0,0 z m -73.35352,0.86328 c -3.01504,1.85569 1.70502,2.02822 0,0 z m -9.71875,0.25586 c -4.43289,0.51884 3.58244,2.23362 0,0 z m 52.29493,0 c -3.54947,2.17985 4.34234,0.60151 0,0 z M 110.5,239.71289 c -4.20979,1.57308 2.60209,1.93622 0,0 z m 43.66211,0 c -2.73711,2.00942 4.2931,1.46464 0,0 z m -148.6660162,0.0156 c -2.5687719,1.63293 1.379046,1.77142 0,0 z m 86.2050782,0.3789 c -4.173221,2.01983 0.710282,3.62955 0,0 z m 81.113278,0 c -0.20045,3.93507 4.22557,1.66293 0,0 z m -58.25781,0.15235 c -2.83762,1.1718 1.73007,1.56423 0,0 z m 35.55078,0 c -1.75142,1.53992 2.81754,1.21538 0,0 z m -25.8125,1.13476 c -3.26435,0.5042 2.61571,0.64585 0,0 z m 16.07227,0 c -2.43616,0.75787 2.86307,0.30199 0,0 z M 32.666016,241.5332 c -5.876354,2.48065 -0.188626,3.55614 0,0 z m 199.330074,0 c -1.23701,2.32176 6.84751,3.43087 0,0 z m -217.824215,0.14844 c -1.77118,1.11686 2.774768,2.90243 0.556928,0.30466 l -0.556928,-0.30466 z m 44.929687,0.54102 c -2.837112,1.16821 1.729786,1.56304 0,0 z m 146.458988,0 c -1.74527,1.54193 2.81516,1.20872 0,0 z m -27.34961,0.084 c -0.44624,3.89627 1.9847,2.79989 0,0 z m -145.171878,0.34375 c -2.308178,1.2045 1.423515,1.941 0,0 z m 198.585938,0 c -1.33564,1.47151 2.0924,1.34774 0,0 z m -147.933594,0.25195 c -1.858868,2.57782 2.876157,1.72596 0,0 z m 97.281254,0 c -2.89327,1.7186 1.83448,2.57398 0,0 z m -152.425785,1.71094 c -2.652204,1.41206 2.569763,1.23735 0,0 z m 207.570315,0 c -2.04236,1.05902 2.15152,1.40403 0,0 z m -48.82422,0.27344 c -2.56227,1.63265 1.3781,1.77151 0,0 z m -182.8320325,0.0664 c -2.5806791,1.56251 2.401204,1.04819 0,0 z m 23.9921875,1.70899 c -4.149305,2.51338 2.348553,1.93936 0,0 z m 207.755855,0 c -2.25356,1.97214 3.71499,2.37773 0,0 z m -120.83984,0.25195 c -2.59786,1.75617 2.511,1.54662 0,0 z m -61.220702,0.6543 c -3.342852,1.39604 2.300197,1.55014 0,0 z m 58.041012,0.33398 c -2.68183,1.8407 2.93505,1.99526 0,0 z m 40.28321,0 c -3.37508,2.22025 3.02374,1.9175 0,0 z m 26.57031,0.20899 c -2.44808,1.5431 3.47958,1.45188 0,0 z m -110.822267,0.21875 c -1.023689,3.01528 3.383415,1.37245 0,0 z m 9.927735,0.0332 c -3.812029,1.85518 3.272166,2.49166 0,0 z m 17.708984,0.42383 c -3.184893,1.43635 1.962591,1.94767 0,0 z m 72.949218,0 c -1.96842,2.02591 3.08855,1.41781 0,0 z m -158.8281244,0.0898 c -2.5263141,1.41959 1.4047744,1.75344 0,0 z m -1.4804687,0.3125 c -2.1188931,0.84254 2.3112571,1.20586 0,0 z m -7.50390628,0.33985 c -3.30807402,0.82786 2.81901678,0.48548 0,0 z m 138.23241938,0 c -2.23672,0.86682 2.3037,0.51847 0,0 z"
     id="rect7042"
     inkscape:connector-curvature="0" />
</svg>
